<svg width="2243" height="507" viewBox="0 0 2243 507" fill="none" xmlns="http://www.w3.org/2000/svg">
<rect width="2243" height="507" fill="white"/>
<path d="M316 173H345.5H380V298H316V173Z" fill="#0B253C"/>
<circle cx="230.5" cy="263.5" r="81.5" stroke="#B54745" stroke-width="50"/>
<path d="M257 141H352.831L354 179L350.494 270L257 275V141Z" fill="white"/>
<path d="M235 103.006C323.534 103.006 392.302 187.828 389.037 277.973C385.102 323.67 368.785 359.503 343.602 383.837C318.466 408.124 282.395 423.006 235 423.006C142.224 423.006 68.5 350.565 68.5 263.006C68.5 175.447 142.224 103.006 235 103.006Z" stroke="#0B253C" stroke-width="50"/>
<path d="M287.075 117.775L287 141L288.603 247.714L288.099 259.629L286 275L333.976 288C333.983 287.971 335.636 281.097 336.04 276.651C336.281 273.998 337 262.466 337 262.466V110.5L326 103L311 95L302 91L294 88L287.075 86V117.775Z" fill="#B54745"/>
<path d="M287.075 117.775L287 141L288.603 247.714L288.099 259.629L286 275L333.976 288C333.983 287.971 335.636 281.097 336.04 276.651C336.281 273.998 337 262.466 337 262.466V110.5L326 103L311 95L302 91L294 88L287.075 86V117.775Z" stroke="#B54745"/>
<path d="M257 74H287.5L287 154.5L257 152.503V74Z" fill="white"/>
<path d="M286.5 248C289.566 260.064 288.049 274.623 283.149 286.091C278.25 297.56 269.713 307.124 258.847 313.32C247.98 319.515 235.382 322.001 222.981 320.396C210.58 318.791 199.059 313.184 190.182 304.434C181.305 295.683 175.562 284.271 173.83 271.944C172.098 259.617 174.474 247.055 180.593 236.18C186.713 225.305 196.239 216.717 207.714 211.729C219.189 206.742 231.98 205.631 244.129 208.566L230.5 263.916L286.5 248Z" fill="white"/>
<path d="M336.501 96.0671L364.5 96.0671L364.5 214.001C364.5 214.001 364.5 240.669 364.5 260C364.5 278.5 361.001 298 361.001 298L325.501 312.001C325.501 312.001 331.001 298.5 333.501 283.5C336.001 268.5 335.958 244.894 336.501 233.5C338.001 201.999 336.501 171.5 336.501 171.5L336.501 96.0671Z" fill="white"/>
<mask id="path-9-outside-1_186_246" maskUnits="userSpaceOnUse" x="555" y="184" width="1534" height="156" fill="black">
<rect fill="white" x="555" y="184" width="1534" height="156"/>
<path d="M705.62 249C705.62 257.76 704.24 265.98 701.48 273.66C698.72 281.22 694.76 287.88 689.6 293.64C684.56 299.4 678.44 303.9 671.24 307.14C664.16 310.38 656.3 312 647.66 312H584.12V294H647.66C655.94 294 663.08 291.96 669.08 287.88C675.08 283.8 679.64 278.4 682.76 271.68C686 264.84 687.62 257.28 687.62 249C687.62 240.72 686 233.16 682.76 226.32C679.64 219.48 675.08 214.08 669.08 210.12C663.08 206.04 655.94 204 647.66 204H575.12V312H557.12V186H647.66C656.3 186 664.16 187.62 671.24 190.86C678.44 194.1 684.56 198.66 689.6 204.54C694.76 210.3 698.72 217.02 701.48 224.7C704.24 232.26 705.62 240.36 705.62 249ZM806.123 263.25C806.123 267.41 805.083 271.223 803.003 274.69C801.009 278.157 798.279 280.93 794.812 283.01C791.433 285.003 787.619 286 783.373 286H733.583C735.403 289.813 738.089 292.933 741.643 295.36C745.283 297.787 749.356 299 753.863 299H796.373V312H753.863C748.923 312 744.286 311.09 739.953 309.27C735.706 307.363 731.936 304.763 728.643 301.47C725.436 298.177 722.923 294.407 721.103 290.16C719.283 285.827 718.373 281.19 718.373 276.25C718.373 271.31 719.283 266.717 721.103 262.47C722.923 258.137 725.436 254.323 728.643 251.03C731.936 247.737 735.706 245.18 739.953 243.36C744.286 241.453 748.923 240.5 753.863 240.5H783.373C787.619 240.5 791.433 241.54 794.812 243.62C798.279 245.613 801.009 248.343 803.003 251.81C805.083 255.19 806.123 259.003 806.123 263.25ZM783.373 273C786.059 273 788.356 272.047 790.263 270.14C792.169 268.233 793.123 265.937 793.123 263.25C793.123 260.563 792.169 258.267 790.263 256.36C788.356 254.453 786.059 253.5 783.373 253.5H753.863C750.049 253.5 746.539 254.367 743.333 256.1C740.213 257.833 737.613 260.173 735.533 263.12C733.453 266.067 732.153 269.36 731.633 273H783.373ZM844.379 312H841.129C836.969 312 833.156 311.003 829.689 309.01C826.222 306.93 823.449 304.2 821.369 300.82C819.376 297.353 818.379 293.497 818.379 289.25V214.5H831.379V289.25C831.379 291.937 832.332 294.233 834.239 296.14C836.146 298.047 838.442 299 841.129 299H844.379V312ZM871.965 224.25C871.965 226.937 871.012 229.233 869.105 231.14C867.199 233.047 864.902 234 862.215 234C859.529 234 857.232 233.047 855.325 231.14C853.419 229.233 852.465 226.937 852.465 224.25C852.465 221.563 853.419 219.267 855.325 217.36C857.232 215.453 859.529 214.5 862.215 214.5C864.902 214.5 867.199 215.453 869.105 217.36C871.012 219.267 871.965 221.563 871.965 224.25ZM868.715 312H855.715V240.5H868.715V312ZM967.144 315.25C967.144 319.41 966.104 323.223 964.024 326.69C962.03 330.157 959.3 332.887 955.834 334.88C952.367 336.96 948.554 338 944.394 338H892.394V325H944.394C947.08 325 949.377 324.047 951.284 322.14C953.19 320.233 954.144 317.937 954.144 315.25V253.5H918.394C914.234 253.5 910.464 254.54 907.084 256.62C903.704 258.7 900.974 261.473 898.894 264.94C896.9 268.32 895.904 272.09 895.904 276.25C895.904 280.41 896.9 284.223 898.894 287.69C900.974 291.07 903.704 293.8 907.084 295.88C910.464 297.873 914.234 298.913 918.394 299H947.644V312H918.394C913.454 312 908.817 311.09 904.484 309.27C900.237 307.363 896.467 304.763 893.174 301.47C889.967 298.177 887.454 294.407 885.634 290.16C883.814 285.827 882.904 281.19 882.904 276.25C882.904 271.31 883.814 266.717 885.634 262.47C887.454 258.137 889.967 254.323 893.174 251.03C896.467 247.737 900.237 245.18 904.484 243.36C908.817 241.453 913.454 240.5 918.394 240.5H967.144V315.25ZM1070.08 312H1057.08V276.25C1057.08 272.09 1056.09 268.32 1054.09 264.94C1052.1 261.473 1049.37 258.7 1045.9 256.62C1042.52 254.54 1038.75 253.5 1034.59 253.5H998.842V312H985.842V214.5H998.842V240.5H1034.59C1039.53 240.5 1044.13 241.453 1048.37 243.36C1052.71 245.18 1056.48 247.737 1059.68 251.03C1062.98 254.323 1065.53 258.137 1067.35 262.47C1069.17 266.717 1070.08 271.31 1070.08 276.25V312ZM1110.46 312H1097.46V253.5H1077.96V240.5H1097.46V214.5H1110.46V240.5H1155.96V253.5H1110.46V312ZM1292.82 312H1227.82C1223.66 312 1219.84 311.003 1216.38 309.01C1212.91 306.93 1210.14 304.2 1208.06 300.82C1206.06 297.353 1205.07 293.497 1205.07 289.25C1205.07 285.003 1206.06 281.19 1208.06 277.81C1210.14 274.343 1212.91 271.613 1216.38 269.62C1219.84 267.54 1223.66 266.5 1227.82 266.5H1273.32V279.5H1227.82C1225.13 279.5 1222.83 280.453 1220.93 282.36C1219.02 284.267 1218.07 286.563 1218.07 289.25C1218.07 291.937 1219.02 294.233 1220.93 296.14C1222.83 298.047 1225.13 299 1227.82 299H1279.82V263.25C1279.82 260.563 1278.86 258.267 1276.96 256.36C1275.05 254.453 1272.75 253.5 1270.07 253.5H1218.07V240.5H1270.07C1274.31 240.5 1278.13 241.54 1281.51 243.62C1284.97 245.613 1287.7 248.343 1289.7 251.81C1291.78 255.19 1292.82 259.003 1292.82 263.25V312ZM1394.04 312H1345.29C1340.35 312 1335.71 311.09 1331.38 309.27C1327.13 307.363 1323.36 304.763 1320.07 301.47C1316.86 298.177 1314.35 294.407 1312.53 290.16C1310.71 285.827 1309.8 281.19 1309.8 276.25V240.5H1322.8V276.25C1322.8 280.41 1323.8 284.223 1325.79 287.69C1327.87 291.07 1330.6 293.8 1333.98 295.88C1337.36 297.873 1341.13 298.913 1345.29 299H1381.04V240.5H1394.04V312ZM1437.88 312H1424.88V253.5H1405.38V240.5H1424.88V214.5H1437.88V240.5H1483.38V253.5H1437.88V312ZM1578.45 276.25C1578.45 281.19 1577.54 285.827 1575.72 290.16C1573.9 294.407 1571.35 298.177 1568.05 301.47C1564.85 304.763 1561.08 307.363 1556.74 309.27C1552.5 311.09 1547.9 312 1542.96 312H1522.94C1518 312 1513.37 311.09 1509.03 309.27C1504.79 307.363 1501.02 304.763 1497.72 301.47C1494.52 298.177 1492 294.407 1490.18 290.16C1488.36 285.827 1487.45 281.19 1487.45 276.25C1487.45 271.31 1488.36 266.717 1490.18 262.47C1492 258.137 1494.52 254.323 1497.72 251.03C1501.02 247.737 1504.79 245.18 1509.03 243.36C1513.37 241.453 1518 240.5 1522.94 240.5H1542.96C1547.9 240.5 1552.5 241.453 1556.74 243.36C1561.08 245.18 1564.85 247.737 1568.05 251.03C1571.35 254.323 1573.9 258.137 1575.72 262.47C1577.54 266.717 1578.45 271.31 1578.45 276.25ZM1565.45 276.25C1565.45 272.09 1564.46 268.32 1562.46 264.94C1560.47 261.473 1557.74 258.7 1554.27 256.62C1550.89 254.54 1547.12 253.5 1542.96 253.5H1522.94C1518.78 253.5 1515.01 254.54 1511.63 256.62C1508.25 258.7 1505.52 261.473 1503.44 264.94C1501.45 268.32 1500.45 272.09 1500.45 276.25C1500.45 280.41 1501.45 284.223 1503.44 287.69C1505.52 291.07 1508.25 293.8 1511.63 295.88C1515.01 297.96 1518.78 299 1522.94 299H1542.96C1547.12 299 1550.89 297.96 1554.27 295.88C1557.74 293.8 1560.47 291.07 1562.46 287.69C1564.46 284.223 1565.45 280.41 1565.45 276.25ZM1712.93 227.5H1676.92C1672.76 227.5 1668.99 228.54 1665.61 230.62C1662.23 232.7 1659.5 235.473 1657.42 238.94C1655.43 242.32 1654.43 246.09 1654.43 250.25V312H1641.43V247C1641.43 242.407 1642.38 238.16 1644.29 234.26C1646.2 230.273 1648.8 226.85 1652.09 223.99C1655.47 221.043 1659.28 218.747 1663.53 217.1C1667.78 215.367 1672.24 214.5 1676.92 214.5H1712.93V227.5ZM1712.93 260H1660.93V247H1712.93V260ZM1810.78 276.25C1810.78 281.19 1809.87 285.827 1808.05 290.16C1806.23 294.407 1803.67 298.177 1800.38 301.47C1797.17 304.763 1793.4 307.363 1789.07 309.27C1784.82 311.09 1780.23 312 1775.29 312H1755.27C1750.33 312 1745.69 311.09 1741.36 309.27C1737.11 307.363 1733.34 304.763 1730.05 301.47C1726.84 298.177 1724.33 294.407 1722.51 290.16C1720.69 285.827 1719.78 281.19 1719.78 276.25C1719.78 271.31 1720.69 266.717 1722.51 262.47C1724.33 258.137 1726.84 254.323 1730.05 251.03C1733.34 247.737 1737.11 245.18 1741.36 243.36C1745.69 241.453 1750.33 240.5 1755.27 240.5H1775.29C1780.23 240.5 1784.82 241.453 1789.07 243.36C1793.4 245.18 1797.17 247.737 1800.38 251.03C1803.67 254.323 1806.23 258.137 1808.05 262.47C1809.87 266.717 1810.78 271.31 1810.78 276.25ZM1797.78 276.25C1797.78 272.09 1796.78 268.32 1794.79 264.94C1792.8 261.473 1790.07 258.7 1786.6 256.62C1783.22 254.54 1779.45 253.5 1775.29 253.5H1755.27C1751.11 253.5 1747.34 254.54 1743.96 256.62C1740.58 258.7 1737.85 261.473 1735.77 264.94C1733.78 268.32 1732.78 272.09 1732.78 276.25C1732.78 280.41 1733.78 284.223 1735.77 287.69C1737.85 291.07 1740.58 293.8 1743.96 295.88C1747.34 297.96 1751.11 299 1755.27 299H1775.29C1779.45 299 1783.22 297.96 1786.6 295.88C1790.07 293.8 1792.8 291.07 1794.79 287.69C1796.78 284.223 1797.78 280.41 1797.78 276.25ZM1895.98 253.5H1847.23C1844.55 253.5 1842.25 254.453 1840.34 256.36C1838.44 258.267 1837.48 260.563 1837.48 263.25V312H1824.48V263.25C1824.48 259.003 1825.48 255.19 1827.47 251.81C1829.55 248.343 1832.33 245.613 1835.79 243.62C1839.26 241.54 1843.07 240.5 1847.23 240.5H1895.98V253.5ZM1984.42 315.25C1984.42 319.41 1983.38 323.223 1981.3 326.69C1979.31 330.157 1976.58 332.887 1973.11 334.88C1969.64 336.96 1965.83 338 1961.67 338H1909.67V325H1961.67C1964.36 325 1966.65 324.047 1968.56 322.14C1970.47 320.233 1971.42 317.937 1971.42 315.25V253.5H1935.67C1931.51 253.5 1927.74 254.54 1924.36 256.62C1920.98 258.7 1918.25 261.473 1916.17 264.94C1914.18 268.32 1913.18 272.09 1913.18 276.25C1913.18 280.41 1914.18 284.223 1916.17 287.69C1918.25 291.07 1920.98 293.8 1924.36 295.88C1927.74 297.873 1931.51 298.913 1935.67 299H1964.92V312H1935.67C1930.73 312 1926.09 311.09 1921.76 309.27C1917.51 307.363 1913.74 304.763 1910.45 301.47C1907.24 298.177 1904.73 294.407 1902.91 290.16C1901.09 285.827 1900.18 281.19 1900.18 276.25C1900.18 271.31 1901.09 266.717 1902.91 262.47C1904.73 258.137 1907.24 254.323 1910.45 251.03C1913.74 247.737 1917.51 245.18 1921.76 243.36C1926.09 241.453 1930.73 240.5 1935.67 240.5H1984.42V315.25ZM2086.32 263.25C2086.32 267.41 2085.28 271.223 2083.2 274.69C2081.2 278.157 2078.47 280.93 2075.01 283.01C2071.63 285.003 2067.81 286 2063.57 286H2013.78C2015.6 289.813 2018.28 292.933 2021.84 295.36C2025.48 297.787 2029.55 299 2034.06 299H2076.57V312H2034.06C2029.12 312 2024.48 311.09 2020.15 309.27C2015.9 307.363 2012.13 304.763 2008.84 301.47C2005.63 298.177 2003.12 294.407 2001.3 290.16C1999.48 285.827 1998.57 281.19 1998.57 276.25C1998.57 271.31 1999.48 266.717 2001.3 262.47C2003.12 258.137 2005.63 254.323 2008.84 251.03C2012.13 247.737 2015.9 245.18 2020.15 243.36C2024.48 241.453 2029.12 240.5 2034.06 240.5H2063.57C2067.81 240.5 2071.63 241.54 2075.01 243.62C2078.47 245.613 2081.2 248.343 2083.2 251.81C2085.28 255.19 2086.32 259.003 2086.32 263.25ZM2063.57 273C2066.25 273 2068.55 272.047 2070.46 270.14C2072.36 268.233 2073.32 265.937 2073.32 263.25C2073.32 260.563 2072.36 258.267 2070.46 256.36C2068.55 254.453 2066.25 253.5 2063.57 253.5H2034.06C2030.24 253.5 2026.73 254.367 2023.53 256.1C2020.41 257.833 2017.81 260.173 2015.73 263.12C2013.65 266.067 2012.35 269.36 2011.83 273H2063.57Z"/>
</mask>
<path d="M705.62 249C705.62 257.76 704.24 265.98 701.48 273.66C698.72 281.22 694.76 287.88 689.6 293.64C684.56 299.4 678.44 303.9 671.24 307.14C664.16 310.38 656.3 312 647.66 312H584.12V294H647.66C655.94 294 663.08 291.96 669.08 287.88C675.08 283.8 679.64 278.4 682.76 271.68C686 264.84 687.62 257.28 687.62 249C687.62 240.72 686 233.16 682.76 226.32C679.64 219.48 675.08 214.08 669.08 210.12C663.08 206.04 655.94 204 647.66 204H575.12V312H557.12V186H647.66C656.3 186 664.16 187.62 671.24 190.86C678.44 194.1 684.56 198.66 689.6 204.54C694.76 210.3 698.72 217.02 701.48 224.7C704.24 232.26 705.62 240.36 705.62 249ZM806.123 263.25C806.123 267.41 805.083 271.223 803.003 274.69C801.009 278.157 798.279 280.93 794.812 283.01C791.433 285.003 787.619 286 783.373 286H733.583C735.403 289.813 738.089 292.933 741.643 295.36C745.283 297.787 749.356 299 753.863 299H796.373V312H753.863C748.923 312 744.286 311.09 739.953 309.27C735.706 307.363 731.936 304.763 728.643 301.47C725.436 298.177 722.923 294.407 721.103 290.16C719.283 285.827 718.373 281.19 718.373 276.25C718.373 271.31 719.283 266.717 721.103 262.47C722.923 258.137 725.436 254.323 728.643 251.03C731.936 247.737 735.706 245.18 739.953 243.36C744.286 241.453 748.923 240.5 753.863 240.5H783.373C787.619 240.5 791.433 241.54 794.812 243.62C798.279 245.613 801.009 248.343 803.003 251.81C805.083 255.19 806.123 259.003 806.123 263.25ZM783.373 273C786.059 273 788.356 272.047 790.263 270.14C792.169 268.233 793.123 265.937 793.123 263.25C793.123 260.563 792.169 258.267 790.263 256.36C788.356 254.453 786.059 253.5 783.373 253.5H753.863C750.049 253.5 746.539 254.367 743.333 256.1C740.213 257.833 737.613 260.173 735.533 263.12C733.453 266.067 732.153 269.36 731.633 273H783.373ZM844.379 312H841.129C836.969 312 833.156 311.003 829.689 309.01C826.222 306.93 823.449 304.2 821.369 300.82C819.376 297.353 818.379 293.497 818.379 289.25V214.5H831.379V289.25C831.379 291.937 832.332 294.233 834.239 296.14C836.146 298.047 838.442 299 841.129 299H844.379V312ZM871.965 224.25C871.965 226.937 871.012 229.233 869.105 231.14C867.199 233.047 864.902 234 862.215 234C859.529 234 857.232 233.047 855.325 231.14C853.419 229.233 852.465 226.937 852.465 224.25C852.465 221.563 853.419 219.267 855.325 217.36C857.232 215.453 859.529 214.5 862.215 214.5C864.902 214.5 867.199 215.453 869.105 217.36C871.012 219.267 871.965 221.563 871.965 224.25ZM868.715 312H855.715V240.5H868.715V312ZM967.144 315.25C967.144 319.41 966.104 323.223 964.024 326.69C962.03 330.157 959.3 332.887 955.834 334.88C952.367 336.96 948.554 338 944.394 338H892.394V325H944.394C947.08 325 949.377 324.047 951.284 322.14C953.19 320.233 954.144 317.937 954.144 315.25V253.5H918.394C914.234 253.5 910.464 254.54 907.084 256.62C903.704 258.7 900.974 261.473 898.894 264.94C896.9 268.32 895.904 272.09 895.904 276.25C895.904 280.41 896.9 284.223 898.894 287.69C900.974 291.07 903.704 293.8 907.084 295.88C910.464 297.873 914.234 298.913 918.394 299H947.644V312H918.394C913.454 312 908.817 311.09 904.484 309.27C900.237 307.363 896.467 304.763 893.174 301.47C889.967 298.177 887.454 294.407 885.634 290.16C883.814 285.827 882.904 281.19 882.904 276.25C882.904 271.31 883.814 266.717 885.634 262.47C887.454 258.137 889.967 254.323 893.174 251.03C896.467 247.737 900.237 245.18 904.484 243.36C908.817 241.453 913.454 240.5 918.394 240.5H967.144V315.25ZM1070.08 312H1057.08V276.25C1057.08 272.09 1056.09 268.32 1054.09 264.94C1052.1 261.473 1049.37 258.7 1045.9 256.62C1042.52 254.54 1038.75 253.5 1034.59 253.5H998.842V312H985.842V214.5H998.842V240.5H1034.59C1039.53 240.5 1044.13 241.453 1048.37 243.36C1052.71 245.18 1056.48 247.737 1059.68 251.03C1062.98 254.323 1065.53 258.137 1067.35 262.47C1069.17 266.717 1070.08 271.31 1070.08 276.25V312ZM1110.46 312H1097.46V253.5H1077.96V240.5H1097.46V214.5H1110.46V240.5H1155.96V253.5H1110.46V312ZM1292.82 312H1227.82C1223.66 312 1219.84 311.003 1216.38 309.01C1212.91 306.93 1210.14 304.2 1208.06 300.82C1206.06 297.353 1205.07 293.497 1205.07 289.25C1205.07 285.003 1206.06 281.19 1208.06 277.81C1210.14 274.343 1212.91 271.613 1216.38 269.62C1219.84 267.54 1223.66 266.5 1227.82 266.5H1273.32V279.5H1227.82C1225.13 279.5 1222.83 280.453 1220.93 282.36C1219.02 284.267 1218.07 286.563 1218.07 289.25C1218.07 291.937 1219.02 294.233 1220.93 296.14C1222.83 298.047 1225.13 299 1227.82 299H1279.82V263.25C1279.82 260.563 1278.86 258.267 1276.96 256.36C1275.05 254.453 1272.75 253.5 1270.07 253.5H1218.07V240.5H1270.07C1274.31 240.5 1278.13 241.54 1281.51 243.62C1284.97 245.613 1287.7 248.343 1289.7 251.81C1291.78 255.19 1292.82 259.003 1292.82 263.25V312ZM1394.04 312H1345.29C1340.35 312 1335.71 311.09 1331.38 309.27C1327.13 307.363 1323.36 304.763 1320.07 301.47C1316.86 298.177 1314.35 294.407 1312.53 290.16C1310.71 285.827 1309.8 281.19 1309.8 276.25V240.5H1322.8V276.25C1322.8 280.41 1323.8 284.223 1325.79 287.69C1327.87 291.07 1330.6 293.8 1333.98 295.88C1337.36 297.873 1341.13 298.913 1345.29 299H1381.04V240.5H1394.04V312ZM1437.88 312H1424.88V253.5H1405.38V240.5H1424.88V214.5H1437.88V240.5H1483.38V253.5H1437.88V312ZM1578.45 276.25C1578.45 281.19 1577.54 285.827 1575.72 290.16C1573.9 294.407 1571.35 298.177 1568.05 301.47C1564.85 304.763 1561.08 307.363 1556.74 309.27C1552.5 311.09 1547.9 312 1542.96 312H1522.94C1518 312 1513.37 311.09 1509.03 309.27C1504.79 307.363 1501.02 304.763 1497.72 301.47C1494.52 298.177 1492 294.407 1490.18 290.16C1488.36 285.827 1487.45 281.19 1487.45 276.25C1487.45 271.31 1488.36 266.717 1490.18 262.47C1492 258.137 1494.52 254.323 1497.72 251.03C1501.02 247.737 1504.79 245.18 1509.03 243.36C1513.37 241.453 1518 240.5 1522.94 240.5H1542.96C1547.9 240.5 1552.5 241.453 1556.74 243.36C1561.08 245.18 1564.85 247.737 1568.05 251.03C1571.35 254.323 1573.9 258.137 1575.72 262.47C1577.54 266.717 1578.45 271.31 1578.45 276.25ZM1565.45 276.25C1565.45 272.09 1564.46 268.32 1562.46 264.94C1560.47 261.473 1557.74 258.7 1554.27 256.62C1550.89 254.54 1547.12 253.5 1542.96 253.5H1522.94C1518.78 253.5 1515.01 254.54 1511.63 256.62C1508.25 258.7 1505.52 261.473 1503.44 264.94C1501.45 268.32 1500.45 272.09 1500.45 276.25C1500.45 280.41 1501.45 284.223 1503.44 287.69C1505.52 291.07 1508.25 293.8 1511.63 295.88C1515.01 297.96 1518.78 299 1522.94 299H1542.96C1547.12 299 1550.89 297.96 1554.27 295.88C1557.74 293.8 1560.47 291.07 1562.46 287.69C1564.46 284.223 1565.45 280.41 1565.45 276.25ZM1712.93 227.5H1676.92C1672.76 227.5 1668.99 228.54 1665.61 230.62C1662.23 232.7 1659.5 235.473 1657.42 238.94C1655.43 242.32 1654.43 246.09 1654.43 250.25V312H1641.43V247C1641.43 242.407 1642.38 238.16 1644.29 234.26C1646.2 230.273 1648.8 226.85 1652.09 223.99C1655.47 221.043 1659.28 218.747 1663.53 217.1C1667.78 215.367 1672.24 214.5 1676.92 214.5H1712.93V227.5ZM1712.93 260H1660.93V247H1712.93V260ZM1810.78 276.25C1810.78 281.19 1809.87 285.827 1808.05 290.16C1806.23 294.407 1803.67 298.177 1800.38 301.47C1797.17 304.763 1793.4 307.363 1789.07 309.27C1784.82 311.09 1780.23 312 1775.29 312H1755.27C1750.33 312 1745.69 311.09 1741.36 309.27C1737.11 307.363 1733.34 304.763 1730.05 301.47C1726.84 298.177 1724.33 294.407 1722.51 290.16C1720.69 285.827 1719.78 281.19 1719.78 276.25C1719.78 271.31 1720.69 266.717 1722.51 262.47C1724.33 258.137 1726.84 254.323 1730.05 251.03C1733.34 247.737 1737.11 245.18 1741.36 243.36C1745.69 241.453 1750.33 240.5 1755.27 240.5H1775.29C1780.23 240.5 1784.82 241.453 1789.07 243.36C1793.4 245.18 1797.17 247.737 1800.38 251.03C1803.67 254.323 1806.23 258.137 1808.05 262.47C1809.87 266.717 1810.78 271.31 1810.78 276.25ZM1797.78 276.25C1797.78 272.09 1796.78 268.32 1794.79 264.94C1792.8 261.473 1790.07 258.7 1786.6 256.62C1783.22 254.54 1779.45 253.5 1775.29 253.5H1755.27C1751.11 253.5 1747.34 254.54 1743.96 256.62C1740.58 258.7 1737.85 261.473 1735.77 264.94C1733.78 268.32 1732.78 272.09 1732.78 276.25C1732.78 280.41 1733.78 284.223 1735.77 287.69C1737.85 291.07 1740.58 293.8 1743.96 295.88C1747.34 297.96 1751.11 299 1755.27 299H1775.29C1779.45 299 1783.22 297.96 1786.6 295.88C1790.07 293.8 1792.8 291.07 1794.79 287.69C1796.78 284.223 1797.78 280.41 1797.78 276.25ZM1895.98 253.5H1847.23C1844.55 253.5 1842.25 254.453 1840.34 256.36C1838.44 258.267 1837.48 260.563 1837.48 263.25V312H1824.48V263.25C1824.48 259.003 1825.48 255.19 1827.47 251.81C1829.55 248.343 1832.33 245.613 1835.79 243.62C1839.26 241.54 1843.07 240.5 1847.23 240.5H1895.98V253.5ZM1984.42 315.25C1984.42 319.41 1983.38 323.223 1981.3 326.69C1979.31 330.157 1976.58 332.887 1973.11 334.88C1969.64 336.96 1965.83 338 1961.67 338H1909.67V325H1961.67C1964.36 325 1966.65 324.047 1968.56 322.14C1970.47 320.233 1971.42 317.937 1971.42 315.25V253.5H1935.67C1931.51 253.5 1927.74 254.54 1924.36 256.62C1920.98 258.7 1918.25 261.473 1916.17 264.94C1914.18 268.32 1913.18 272.09 1913.18 276.25C1913.18 280.41 1914.18 284.223 1916.17 287.69C1918.25 291.07 1920.98 293.8 1924.36 295.88C1927.74 297.873 1931.51 298.913 1935.67 299H1964.92V312H1935.67C1930.73 312 1926.09 311.09 1921.76 309.27C1917.51 307.363 1913.74 304.763 1910.45 301.47C1907.24 298.177 1904.73 294.407 1902.91 290.16C1901.09 285.827 1900.18 281.19 1900.18 276.25C1900.18 271.31 1901.09 266.717 1902.91 262.47C1904.73 258.137 1907.24 254.323 1910.45 251.03C1913.74 247.737 1917.51 245.18 1921.76 243.36C1926.09 241.453 1930.73 240.5 1935.67 240.5H1984.42V315.25ZM2086.32 263.25C2086.32 267.41 2085.28 271.223 2083.2 274.69C2081.2 278.157 2078.47 280.93 2075.01 283.01C2071.63 285.003 2067.81 286 2063.57 286H2013.78C2015.6 289.813 2018.28 292.933 2021.84 295.36C2025.48 297.787 2029.55 299 2034.06 299H2076.57V312H2034.06C2029.12 312 2024.48 311.09 2020.15 309.27C2015.9 307.363 2012.13 304.763 2008.84 301.47C2005.63 298.177 2003.12 294.407 2001.3 290.16C1999.48 285.827 1998.57 281.19 1998.57 276.25C1998.57 271.31 1999.48 266.717 2001.3 262.47C2003.12 258.137 2005.63 254.323 2008.84 251.03C2012.13 247.737 2015.9 245.18 2020.15 243.36C2024.48 241.453 2029.12 240.5 2034.06 240.5H2063.57C2067.81 240.5 2071.63 241.54 2075.01 243.62C2078.47 245.613 2081.2 248.343 2083.2 251.81C2085.28 255.19 2086.32 259.003 2086.32 263.25ZM2063.57 273C2066.25 273 2068.55 272.047 2070.46 270.14C2072.36 268.233 2073.32 265.937 2073.32 263.25C2073.32 260.563 2072.36 258.267 2070.46 256.36C2068.55 254.453 2066.25 253.5 2063.57 253.5H2034.06C2030.24 253.5 2026.73 254.367 2023.53 256.1C2020.41 257.833 2017.81 260.173 2015.73 263.12C2013.65 266.067 2012.35 269.36 2011.83 273H2063.57Z" fill="#B54745"/>
<path d="M701.48 273.66L703.359 274.346L703.362 274.336L701.48 273.66ZM689.6 293.64L688.11 292.305L688.103 292.314L688.095 292.323L689.6 293.64ZM671.24 307.14L670.419 305.316L670.408 305.321L671.24 307.14ZM584.12 312H582.12V314H584.12V312ZM584.12 294V292H582.12V294H584.12ZM669.08 287.88L670.205 289.534L669.08 287.88ZM682.76 271.68L680.953 270.824L680.949 270.831L680.946 270.838L682.76 271.68ZM682.76 226.32L680.94 227.15L680.946 227.163L680.953 227.176L682.76 226.32ZM669.08 210.12L667.955 211.774L667.967 211.782L667.978 211.789L669.08 210.12ZM575.12 204V202H573.12V204H575.12ZM575.12 312V314H577.12V312H575.12ZM557.12 312H555.12V314H557.12V312ZM557.12 186V184H555.12V186H557.12ZM671.24 190.86L670.408 192.679L670.419 192.684L671.24 190.86ZM689.6 204.54L688.081 205.842L688.096 205.858L688.11 205.874L689.6 204.54ZM701.48 224.7L699.598 225.376L699.601 225.386L701.48 224.7ZM705.62 249H703.62C703.62 257.546 702.274 265.536 699.598 272.984L701.48 273.66L703.362 274.336C706.206 266.424 707.62 257.974 707.62 249H705.62ZM701.48 273.66L699.601 272.974C696.925 280.305 693.094 286.743 688.11 292.305L689.6 293.64L691.09 294.975C696.426 289.017 700.515 282.135 703.359 274.346L701.48 273.66ZM689.6 293.64L688.095 292.323C683.25 297.86 677.366 302.19 670.419 305.316L671.24 307.14L672.061 308.964C679.514 305.61 685.87 300.94 691.105 294.957L689.6 293.64ZM671.24 307.14L670.408 305.321C663.616 308.429 656.045 310 647.66 310V312V314C656.556 314 664.704 312.331 672.072 308.959L671.24 307.14ZM647.66 312V310H584.12V312V314H647.66V312ZM584.12 312H586.12V294H584.12H582.12V312H584.12ZM584.12 294V296H647.66V294V292H584.12V294ZM647.66 294V296C656.283 296 663.828 293.87 670.205 289.534L669.08 287.88L667.955 286.226C662.332 290.05 655.597 292 647.66 292V294ZM669.08 287.88L670.205 289.534C676.51 285.246 681.305 279.563 684.574 272.522L682.76 271.68L680.946 270.838C677.975 277.237 673.65 282.354 667.955 286.226L669.08 287.88ZM682.76 271.68L684.567 272.536C687.946 265.404 689.62 257.548 689.62 249H687.62H685.62C685.62 257.012 684.054 264.276 680.953 270.824L682.76 271.68ZM687.62 249H689.62C689.62 240.452 687.946 232.596 684.567 225.464L682.76 226.32L680.953 227.176C684.054 233.724 685.62 240.988 685.62 249H687.62ZM682.76 226.32L684.58 225.49C681.311 218.325 676.51 212.627 670.182 208.451L669.08 210.12L667.978 211.789C673.65 215.533 677.969 220.635 680.94 227.15L682.76 226.32ZM669.08 210.12L670.205 208.466C663.828 204.13 656.283 202 647.66 202V204V206C655.597 206 662.332 207.95 667.955 211.774L669.08 210.12ZM647.66 204V202H575.12V204V206H647.66V204ZM575.12 204H573.12V312H575.12H577.12V204H575.12ZM575.12 312V310H557.12V312V314H575.12V312ZM557.12 312H559.12V186H557.12H555.12V312H557.12ZM557.12 186V188H647.66V186V184H557.12V186ZM647.66 186V188C656.045 188 663.616 189.571 670.408 192.679L671.24 190.86L672.072 189.041C664.704 185.669 656.556 184 647.66 184V186ZM671.24 190.86L670.419 192.684C677.357 195.806 683.237 200.189 688.081 205.842L689.6 204.54L691.119 203.238C685.883 197.131 679.523 192.394 672.061 189.036L671.24 190.86ZM689.6 204.54L688.11 205.874C693.089 211.432 696.92 217.925 699.598 225.376L701.48 224.7L703.362 224.024C700.52 216.115 696.431 209.168 691.09 203.206L689.6 204.54ZM701.48 224.7L699.601 225.386C702.275 232.71 703.62 240.577 703.62 249H705.62H707.62C707.62 240.143 706.205 231.81 703.359 224.014L701.48 224.7ZM803.003 274.69L801.288 273.661L801.278 273.677L801.269 273.693L803.003 274.69ZM794.812 283.01L795.828 284.733L795.835 284.729L795.841 284.725L794.812 283.01ZM733.583 286V284H730.412L731.778 286.861L733.583 286ZM741.643 295.36L740.515 297.012L740.524 297.018L740.533 297.024L741.643 295.36ZM796.372 299H798.372V297H796.372V299ZM796.372 312V314H798.372V312H796.372ZM739.952 309.27L739.133 311.095L739.156 311.105L739.178 311.114L739.952 309.27ZM728.643 301.47L727.21 302.865L727.219 302.875L727.228 302.884L728.643 301.47ZM721.102 290.16L719.259 290.934L719.261 290.941L719.264 290.948L721.102 290.16ZM721.102 262.47L722.941 263.258L722.944 263.251L722.946 263.244L721.102 262.47ZM728.643 251.03L727.228 249.616L727.219 249.625L727.21 249.635L728.643 251.03ZM739.952 243.36L740.74 245.198L740.749 245.195L740.758 245.191L739.952 243.36ZM794.812 243.62L793.764 245.323L793.79 245.339L793.816 245.354L794.812 243.62ZM803.003 251.81L801.269 252.807L801.284 252.833L801.299 252.858L803.003 251.81ZM790.262 270.14L788.848 268.726L790.262 270.14ZM790.262 256.36L791.677 254.946V254.946L790.262 256.36ZM743.333 256.1L742.381 254.341L742.371 254.346L742.361 254.352L743.333 256.1ZM735.533 263.12L737.166 264.273L735.533 263.12ZM731.633 273L729.653 272.717L729.326 275H731.633V273ZM806.122 263.25H804.122C804.122 267.059 803.175 270.514 801.288 273.661L803.003 274.69L804.717 275.719C806.99 271.932 808.122 267.761 808.122 263.25H806.122ZM803.003 274.69L801.269 273.693C799.447 276.861 796.961 279.388 793.784 281.295L794.812 283.01L795.841 284.725C799.597 282.472 802.571 279.452 804.736 275.687L803.003 274.69ZM794.812 283.01L793.797 281.287C790.749 283.084 787.292 284 783.372 284V286V288C787.946 288 792.116 286.922 795.828 284.733L794.812 283.01ZM783.372 286V284H733.583V286V288H783.372V286ZM733.583 286L731.778 286.861C733.752 290.999 736.675 294.39 740.515 297.012L741.643 295.36L742.77 293.708C739.503 291.477 737.053 288.627 735.387 285.139L733.583 286ZM741.643 295.36L740.533 297.024C744.512 299.677 748.974 301 753.863 301V299V297C749.738 297 746.053 295.897 742.752 293.696L741.643 295.36ZM753.863 299V301H796.372V299V297H753.863V299ZM796.372 299H794.372V312H796.372H798.372V299H796.372ZM796.372 312V310H753.863V312V314H796.372V312ZM753.863 312V310C749.175 310 744.803 309.138 740.727 307.426L739.952 309.27L739.178 311.114C743.769 313.042 748.67 314 753.863 314V312ZM739.952 309.27L740.772 307.445C736.747 305.638 733.178 303.177 730.057 300.056L728.643 301.47L727.228 302.884C730.693 306.349 734.665 309.088 739.133 311.095L739.952 309.27ZM728.643 301.47L730.075 300.075C727.041 296.958 724.665 293.394 722.941 289.372L721.102 290.16L719.264 290.948C721.18 295.419 723.831 299.395 727.21 302.865L728.643 301.47ZM721.102 290.16L722.946 289.386C721.235 285.31 720.372 280.938 720.372 276.25H718.372H716.372C716.372 281.442 717.33 286.343 719.259 290.934L721.102 290.16ZM718.372 276.25H720.372C720.372 271.562 721.235 267.239 722.941 263.258L721.102 262.47L719.264 261.682C717.33 266.195 716.372 271.058 716.372 276.25H718.372ZM721.102 262.47L722.946 263.244C724.672 259.137 727.047 255.535 730.075 252.425L728.643 251.03L727.21 249.635C723.824 253.112 721.173 257.137 719.259 261.696L721.102 262.47ZM728.643 251.03L730.057 252.444C733.172 249.329 736.729 246.917 740.74 245.198L739.952 243.36L739.165 241.522C734.682 243.443 730.7 246.144 727.228 249.616L728.643 251.03ZM739.952 243.36L740.758 245.191C744.826 243.401 749.188 242.5 753.863 242.5V240.5V238.5C748.657 238.5 743.745 239.506 739.147 241.529L739.952 243.36ZM753.863 240.5V242.5H783.372V240.5V238.5H753.863V240.5ZM783.372 240.5V242.5C787.276 242.5 790.722 243.451 793.764 245.323L794.812 243.62L795.861 241.917C792.143 239.629 787.962 238.5 783.372 238.5V240.5ZM794.812 243.62L793.816 245.354C796.976 247.171 799.452 249.647 801.269 252.807L803.003 251.81L804.736 250.813C802.567 247.04 799.583 244.056 795.809 241.886L794.812 243.62ZM803.003 251.81L801.299 252.858C803.172 255.901 804.122 259.346 804.122 263.25H806.122H808.122C808.122 258.66 806.993 254.479 804.706 250.762L803.003 251.81ZM783.372 273V275C786.592 275 789.397 273.834 791.677 271.554L790.262 270.14L788.848 268.726C787.315 270.259 785.527 271 783.372 271V273ZM790.262 270.14L791.677 271.554C793.957 269.274 795.123 266.469 795.123 263.25H793.123H791.123C791.123 265.404 790.381 267.193 788.848 268.726L790.262 270.14ZM793.123 263.25H795.123C795.123 260.031 793.957 257.226 791.677 254.946L790.262 256.36L788.848 257.774C790.381 259.307 791.123 261.096 791.123 263.25H793.123ZM790.262 256.36L791.677 254.946C789.397 252.666 786.592 251.5 783.372 251.5V253.5V255.5C785.527 255.5 787.315 256.241 788.848 257.774L790.262 256.36ZM783.372 253.5V251.5H753.863V253.5V255.5H783.372V253.5ZM753.863 253.5V251.5C749.733 251.5 745.894 252.442 742.381 254.341L743.333 256.1L744.284 257.859C747.184 256.291 750.365 255.5 753.863 255.5V253.5ZM743.333 256.1L742.361 254.352C738.976 256.233 736.15 258.777 733.899 261.967L735.533 263.12L737.166 264.273C739.075 261.57 741.449 259.434 744.304 257.848L743.333 256.1ZM735.533 263.12L733.899 261.967C731.632 265.177 730.216 268.77 729.653 272.717L731.633 273L733.612 273.283C734.089 269.95 735.273 266.956 737.166 264.273L735.533 263.12ZM731.633 273V275H783.372V273V271H731.633V273ZM844.379 312V314H846.379V312H844.379ZM829.689 309.01L828.66 310.725L828.676 310.735L828.692 310.744L829.689 309.01ZM821.369 300.82L819.635 301.817L819.65 301.843L819.666 301.868L821.369 300.82ZM818.379 214.5V212.5H816.379V214.5H818.379ZM831.379 214.5H833.379V212.5H831.379V214.5ZM834.239 296.14L835.653 294.726L834.239 296.14ZM844.379 299H846.379V297H844.379V299ZM844.379 312V310H841.129V312V314H844.379V312ZM841.129 312V310C837.304 310 833.837 309.088 830.686 307.276L829.689 309.01L828.692 310.744C832.475 312.919 836.634 314 841.129 314V312ZM829.689 309.01L830.718 307.295C827.521 305.377 824.981 302.873 823.072 299.772L821.369 300.82L819.666 301.868C821.917 305.527 824.924 308.483 828.66 310.725L829.689 309.01ZM821.369 300.82L823.103 299.823C821.295 296.679 820.379 293.169 820.379 289.25H818.379H816.379C816.379 293.824 817.457 298.028 819.635 301.817L821.369 300.82ZM818.379 289.25H820.379V214.5H818.379H816.379V289.25H818.379ZM818.379 214.5V216.5H831.379V214.5V212.5H818.379V214.5ZM831.379 214.5H829.379V289.25H831.379H833.379V214.5H831.379ZM831.379 289.25H829.379C829.379 292.469 830.545 295.274 832.825 297.554L834.239 296.14L835.653 294.726C834.12 293.193 833.379 291.404 833.379 289.25H831.379ZM834.239 296.14L832.825 297.554C835.105 299.834 837.91 301 841.129 301V299V297C838.975 297 837.186 296.259 835.653 294.726L834.239 296.14ZM841.129 299V301H844.379V299V297H841.129V299ZM844.379 299H842.379V312H844.379H846.379V299H844.379ZM855.325 231.14L856.74 229.726L855.325 231.14ZM855.325 217.36L856.74 218.774L855.325 217.36ZM868.715 312V314H870.715V312H868.715ZM855.715 312H853.715V314H855.715V312ZM855.715 240.5V238.5H853.715V240.5H855.715ZM868.715 240.5H870.715V238.5H868.715V240.5ZM871.965 224.25H869.965C869.965 226.404 869.224 228.193 867.691 229.726L869.105 231.14L870.52 232.554C872.8 230.274 873.965 227.469 873.965 224.25H871.965ZM869.105 231.14L867.691 229.726C866.158 231.259 864.37 232 862.215 232V234V236C865.435 236 868.239 234.834 870.52 232.554L869.105 231.14ZM862.215 234V232C860.061 232 858.273 231.259 856.74 229.726L855.325 231.14L853.911 232.554C856.191 234.834 858.996 236 862.215 236V234ZM855.325 231.14L856.74 229.726C855.207 228.193 854.465 226.404 854.465 224.25H852.465H850.465C850.465 227.469 851.631 230.274 853.911 232.554L855.325 231.14ZM852.465 224.25H854.465C854.465 222.096 855.207 220.307 856.74 218.774L855.325 217.36L853.911 215.946C851.631 218.226 850.465 221.031 850.465 224.25H852.465ZM855.325 217.36L856.74 218.774C858.273 217.241 860.061 216.5 862.215 216.5V214.5V212.5C858.996 212.5 856.191 213.666 853.911 215.946L855.325 217.36ZM862.215 214.5V216.5C864.37 216.5 866.158 217.241 867.691 218.774L869.105 217.36L870.52 215.946C868.239 213.666 865.435 212.5 862.215 212.5V214.5ZM869.105 217.36L867.691 218.774C869.224 220.307 869.965 222.096 869.965 224.25H871.965H873.965C873.965 221.031 872.8 218.226 870.52 215.946L869.105 217.36ZM868.715 312V310H855.715V312V314H868.715V312ZM855.715 312H857.715V240.5H855.715H853.715V312H855.715ZM855.715 240.5V242.5H868.715V240.5V238.5H855.715V240.5ZM868.715 240.5H866.715V312H868.715H870.715V240.5H868.715ZM964.024 326.69L962.309 325.661L962.299 325.677L962.29 325.693L964.024 326.69ZM955.834 334.88L954.837 333.146L954.821 333.155L954.805 333.165L955.834 334.88ZM892.394 338H890.394V340H892.394V338ZM892.394 325V323H890.394V325H892.394ZM954.144 253.5H956.144V251.5H954.144V253.5ZM907.084 256.62L906.036 254.917L907.084 256.62ZM898.894 264.94L897.179 263.911L897.175 263.918L897.171 263.924L898.894 264.94ZM898.894 287.69L897.16 288.687L897.175 288.713L897.19 288.738L898.894 287.69ZM907.084 295.88L906.036 297.583L906.052 297.593L906.068 297.603L907.084 295.88ZM918.394 299L918.352 301L918.373 301H918.394V299ZM947.644 299H949.644V297H947.644V299ZM947.644 312V314H949.644V312H947.644ZM904.484 309.27L903.665 311.095L903.687 311.105L903.709 311.114L904.484 309.27ZM893.174 301.47L891.741 302.865L891.75 302.875L891.76 302.884L893.174 301.47ZM885.634 290.16L883.79 290.934L883.793 290.941L883.795 290.948L885.634 290.16ZM885.634 262.47L887.472 263.258L887.475 263.251L887.478 263.244L885.634 262.47ZM893.174 251.03L891.76 249.616L891.75 249.625L891.741 249.635L893.174 251.03ZM904.484 243.36L905.272 245.198L905.28 245.195L905.289 245.191L904.484 243.36ZM967.144 240.5H969.144V238.5H967.144V240.5ZM967.144 315.25H965.144C965.144 319.059 964.197 322.514 962.309 325.661L964.024 326.69L965.739 327.719C968.011 323.932 969.144 319.761 969.144 315.25H967.144ZM964.024 326.69L962.29 325.693C960.473 328.853 957.997 331.329 954.837 333.146L955.834 334.88L956.831 336.614C960.604 334.444 963.588 331.46 965.758 327.687L964.024 326.69ZM955.834 334.88L954.805 333.165C951.658 335.053 948.202 336 944.394 336V338V340C948.905 340 953.076 338.867 956.863 336.595L955.834 334.88ZM944.394 338V336H892.394V338V340H944.394V338ZM892.394 338H894.394V325H892.394H890.394V338H892.394ZM892.394 325V327H944.394V325V323H892.394V325ZM944.394 325V327C947.613 327 950.418 325.834 952.698 323.554L951.284 322.14L949.87 320.726C948.336 322.259 946.548 323 944.394 323V325ZM951.284 322.14L952.698 323.554C954.978 321.274 956.144 318.469 956.144 315.25H954.144H952.144C952.144 317.404 951.403 319.193 949.87 320.726L951.284 322.14ZM954.144 315.25H956.144V253.5H954.144H952.144V315.25H954.144ZM954.144 253.5V251.5H918.394V253.5V255.5H954.144V253.5ZM918.394 253.5V251.5C913.882 251.5 909.746 252.633 906.036 254.917L907.084 256.62L908.132 258.323C911.181 256.447 914.585 255.5 918.394 255.5V253.5ZM907.084 256.62L906.036 254.917C902.377 257.168 899.421 260.175 897.179 263.911L898.894 264.94L900.609 265.969C902.527 262.772 905.03 260.232 908.132 258.323L907.084 256.62ZM898.894 264.94L897.171 263.924C894.985 267.631 893.904 271.755 893.904 276.25H895.904H897.904C897.904 272.425 898.816 269.009 900.616 265.956L898.894 264.94ZM895.904 276.25H893.904C893.904 280.745 894.985 284.904 897.16 288.687L898.894 287.69L900.628 286.693C898.816 283.542 897.904 280.075 897.904 276.25H895.904ZM898.894 287.69L897.19 288.738C899.435 292.385 902.389 295.339 906.036 297.583L907.084 295.88L908.132 294.177C905.019 292.261 902.513 289.755 900.597 286.642L898.894 287.69ZM907.084 295.88L906.068 297.603C909.761 299.781 913.87 300.906 918.352 301L918.394 299L918.435 297C914.597 296.92 911.166 295.966 908.1 294.157L907.084 295.88ZM918.394 299V301H947.644V299V297H918.394V299ZM947.644 299H945.644V312H947.644H949.644V299H947.644ZM947.644 312V310H918.394V312V314H947.644V312ZM918.394 312V310C913.706 310 909.334 309.138 905.258 307.426L904.484 309.27L903.709 311.114C908.3 313.042 913.202 314 918.394 314V312ZM904.484 309.27L905.303 307.445C901.278 305.638 897.71 303.177 894.588 300.056L893.174 301.47L891.76 302.884C895.225 306.349 899.196 309.088 903.665 311.095L904.484 309.27ZM893.174 301.47L894.607 300.075C891.572 296.958 889.196 293.394 887.472 289.372L885.634 290.16L883.795 290.948C885.712 295.419 888.362 299.395 891.741 302.865L893.174 301.47ZM885.634 290.16L887.478 289.386C885.766 285.31 884.904 280.938 884.904 276.25H882.904H880.904C880.904 281.442 881.862 286.343 883.79 290.934L885.634 290.16ZM882.904 276.25H884.904C884.904 271.562 885.766 267.239 887.472 263.258L885.634 262.47L883.795 261.682C881.862 266.195 880.904 271.058 880.904 276.25H882.904ZM885.634 262.47L887.478 263.244C889.203 259.137 891.579 255.535 894.607 252.425L893.174 251.03L891.741 249.635C888.356 253.112 885.704 257.137 883.79 261.696L885.634 262.47ZM893.174 251.03L894.588 252.444C897.703 249.329 901.261 246.917 905.272 245.198L904.484 243.36L903.696 241.522C899.213 243.443 895.231 246.144 891.76 249.616L893.174 251.03ZM904.484 243.36L905.289 245.191C909.358 243.401 913.719 242.5 918.394 242.5V240.5V238.5C913.189 238.5 908.276 239.506 903.678 241.529L904.484 243.36ZM918.394 240.5V242.5H967.144V240.5V238.5H918.394V240.5ZM967.144 240.5H965.144V315.25H967.144H969.144V240.5H967.144ZM1070.08 312V314H1072.08V312H1070.08ZM1057.08 312H1055.08V314H1057.08V312ZM1054.09 264.94L1052.36 265.937L1052.36 265.946L1052.37 265.956L1054.09 264.94ZM1045.9 256.62L1044.85 258.323L1044.86 258.329L1044.87 258.335L1045.9 256.62ZM998.842 253.5V251.5H996.842V253.5H998.842ZM998.842 312V314H1000.84V312H998.842ZM985.842 312H983.842V314H985.842V312ZM985.842 214.5V212.5H983.842V214.5H985.842ZM998.842 214.5H1000.84V212.5H998.842V214.5ZM998.842 240.5H996.842V242.5H998.842V240.5ZM1048.37 243.36L1047.55 245.185L1047.58 245.195L1047.6 245.204L1048.37 243.36ZM1059.68 251.03L1058.25 252.425L1058.26 252.435L1058.27 252.444L1059.68 251.03ZM1067.35 262.47L1065.51 263.244L1065.51 263.251L1065.51 263.258L1067.35 262.47ZM1070.08 312V310H1057.08V312V314H1070.08V312ZM1057.08 312H1059.08V276.25H1057.08H1055.08V312H1057.08ZM1057.08 276.25H1059.08C1059.08 271.755 1058 267.631 1055.82 263.924L1054.09 264.94L1052.37 265.956C1054.17 269.009 1055.08 272.425 1055.08 276.25H1057.08ZM1054.09 264.94L1055.83 263.943C1053.66 260.178 1050.69 257.158 1046.93 254.905L1045.9 256.62L1044.87 258.335C1048.05 260.242 1050.54 262.769 1052.36 265.937L1054.09 264.94ZM1045.9 256.62L1046.95 254.917C1043.24 252.633 1039.1 251.5 1034.59 251.5V253.5V255.5C1038.4 255.5 1041.8 256.447 1044.85 258.323L1045.9 256.62ZM1034.59 253.5V251.5H998.842V253.5V255.5H1034.59V253.5ZM998.842 253.5H996.842V312H998.842H1000.84V253.5H998.842ZM998.842 312V310H985.842V312V314H998.842V312ZM985.842 312H987.842V214.5H985.842H983.842V312H985.842ZM985.842 214.5V216.5H998.842V214.5V212.5H985.842V214.5ZM998.842 214.5H996.842V240.5H998.842H1000.84V214.5H998.842ZM998.842 240.5V242.5H1034.59V240.5V238.5H998.842V240.5ZM1034.59 240.5V242.5C1039.27 242.5 1043.58 243.401 1047.55 245.185L1048.37 243.36L1049.19 241.535C1044.67 239.506 1039.8 238.5 1034.59 238.5V240.5ZM1048.37 243.36L1047.6 245.204C1051.69 246.922 1055.23 249.329 1058.25 252.425L1059.68 251.03L1061.12 249.635C1057.72 246.145 1053.72 243.438 1049.15 241.516L1048.37 243.36ZM1059.68 251.03L1058.27 252.444C1061.38 255.552 1063.79 259.148 1065.51 263.244L1067.35 262.47L1069.2 261.696C1067.28 257.125 1064.58 253.094 1061.1 249.616L1059.68 251.03ZM1067.35 262.47L1065.51 263.258C1067.22 267.239 1068.08 271.562 1068.08 276.25H1070.08H1072.08C1072.08 271.058 1071.12 266.195 1069.19 261.682L1067.35 262.47ZM1070.08 276.25H1068.08V312H1070.08H1072.08V276.25H1070.08ZM1110.46 312V314H1112.46V312H1110.46ZM1097.46 312H1095.46V314H1097.46V312ZM1097.46 253.5H1099.46V251.5H1097.46V253.5ZM1077.96 253.5H1075.96V255.5H1077.96V253.5ZM1077.96 240.5V238.5H1075.96V240.5H1077.96ZM1097.46 240.5V242.5H1099.46V240.5H1097.46ZM1097.46 214.5V212.5H1095.46V214.5H1097.46ZM1110.46 214.5H1112.46V212.5H1110.46V214.5ZM1110.46 240.5H1108.46V242.5H1110.46V240.5ZM1155.96 240.5H1157.96V238.5H1155.96V240.5ZM1155.96 253.5V255.5H1157.96V253.5H1155.96ZM1110.46 253.5V251.5H1108.46V253.5H1110.46ZM1110.46 312V310H1097.46V312V314H1110.46V312ZM1097.46 312H1099.46V253.5H1097.46H1095.46V312H1097.46ZM1097.46 253.5V251.5H1077.96V253.5V255.5H1097.46V253.5ZM1077.96 253.5H1079.96V240.5H1077.96H1075.96V253.5H1077.96ZM1077.96 240.5V242.5H1097.46V240.5V238.5H1077.96V240.5ZM1097.46 240.5H1099.46V214.5H1097.46H1095.46V240.5H1097.46ZM1097.46 214.5V216.5H1110.46V214.5V212.5H1097.46V214.5ZM1110.46 214.5H1108.46V240.5H1110.46H1112.46V214.5H1110.46ZM1110.46 240.5V242.5H1155.96V240.5V238.5H1110.46V240.5ZM1155.96 240.5H1153.96V253.5H1155.96H1157.96V240.5H1155.96ZM1155.96 253.5V251.5H1110.46V253.5V255.5H1155.96V253.5ZM1110.46 253.5H1108.46V312H1110.46H1112.46V253.5H1110.46ZM1292.82 312V314H1294.82V312H1292.82ZM1216.38 309.01L1215.35 310.725L1215.37 310.735L1215.38 310.744L1216.38 309.01ZM1208.06 300.82L1206.32 301.817L1206.34 301.843L1206.35 301.868L1208.06 300.82ZM1208.06 277.81L1206.34 276.781L1206.34 276.788L1206.34 276.794L1208.06 277.81ZM1216.38 269.62L1217.38 271.354L1217.39 271.345L1217.41 271.335L1216.38 269.62ZM1273.32 266.5H1275.32V264.5H1273.32V266.5ZM1273.32 279.5V281.5H1275.32V279.5H1273.32ZM1220.93 282.36L1219.51 280.946L1220.93 282.36ZM1220.93 296.14L1222.34 294.726L1220.93 296.14ZM1279.82 299V301H1281.82V299H1279.82ZM1276.96 256.36L1278.37 254.946V254.946L1276.96 256.36ZM1218.07 253.5H1216.07V255.5H1218.07V253.5ZM1218.07 240.5V238.5H1216.07V240.5H1218.07ZM1281.51 243.62L1280.46 245.323L1280.49 245.339L1280.51 245.354L1281.51 243.62ZM1289.7 251.81L1287.96 252.807L1287.98 252.833L1287.99 252.858L1289.7 251.81ZM1292.82 312V310H1227.82V312V314H1292.82V312ZM1227.82 312V310C1223.99 310 1220.53 309.088 1217.38 307.276L1216.38 309.01L1215.38 310.744C1219.16 312.919 1223.32 314 1227.82 314V312ZM1216.38 309.01L1217.41 307.295C1214.21 305.377 1211.67 302.873 1209.76 299.772L1208.06 300.82L1206.35 301.868C1208.61 305.527 1211.61 308.483 1215.35 310.725L1216.38 309.01ZM1208.06 300.82L1209.79 299.823C1207.98 296.679 1207.07 293.169 1207.07 289.25H1205.07H1203.07C1203.07 293.824 1204.15 298.028 1206.32 301.817L1208.06 300.82ZM1205.07 289.25H1207.07C1207.07 285.33 1207.98 281.873 1209.78 278.826L1208.06 277.81L1206.34 276.794C1204.15 280.507 1203.07 284.676 1203.07 289.25H1205.07ZM1208.06 277.81L1209.77 278.839C1211.68 275.661 1214.21 273.175 1217.38 271.354L1216.38 269.62L1215.38 267.886C1211.62 270.051 1208.6 273.025 1206.34 276.781L1208.06 277.81ZM1216.38 269.62L1217.41 271.335C1220.55 269.447 1224.01 268.5 1227.82 268.5V266.5V264.5C1223.31 264.5 1219.14 265.633 1215.35 267.905L1216.38 269.62ZM1227.82 266.5V268.5H1273.32V266.5V264.5H1227.82V266.5ZM1273.32 266.5H1271.32V279.5H1273.32H1275.32V266.5H1273.32ZM1273.32 279.5V277.5H1227.82V279.5V281.5H1273.32V279.5ZM1227.82 279.5V277.5C1224.6 277.5 1221.79 278.666 1219.51 280.946L1220.93 282.36L1222.34 283.774C1223.88 282.241 1225.66 281.5 1227.82 281.5V279.5ZM1220.93 282.36L1219.51 280.946C1217.23 283.226 1216.07 286.031 1216.07 289.25H1218.07H1220.07C1220.07 287.096 1220.81 285.307 1222.34 283.774L1220.93 282.36ZM1218.07 289.25H1216.07C1216.07 292.469 1217.23 295.274 1219.51 297.554L1220.93 296.14L1222.34 294.726C1220.81 293.193 1220.07 291.404 1220.07 289.25H1218.07ZM1220.93 296.14L1219.51 297.554C1221.79 299.834 1224.6 301 1227.82 301V299V297C1225.66 297 1223.88 296.259 1222.34 294.726L1220.93 296.14ZM1227.82 299V301H1279.82V299V297H1227.82V299ZM1279.82 299H1281.82V263.25H1279.82H1277.82V299H1279.82ZM1279.82 263.25H1281.82C1281.82 260.031 1280.65 257.226 1278.37 254.946L1276.96 256.36L1275.54 257.774C1277.08 259.307 1277.82 261.096 1277.82 263.25H1279.82ZM1276.96 256.36L1278.37 254.946C1276.09 252.666 1273.29 251.5 1270.07 251.5V253.5V255.5C1272.22 255.5 1274.01 256.241 1275.54 257.774L1276.96 256.36ZM1270.07 253.5V251.5H1218.07V253.5V255.5H1270.07V253.5ZM1218.07 253.5H1220.07V240.5H1218.07H1216.07V253.5H1218.07ZM1218.07 240.5V242.5H1270.07V240.5V238.5H1218.07V240.5ZM1270.07 240.5V242.5C1273.97 242.5 1277.42 243.451 1280.46 245.323L1281.51 243.62L1282.56 241.917C1278.84 239.629 1274.66 238.5 1270.07 238.5V240.5ZM1281.51 243.62L1280.51 245.354C1283.67 247.171 1286.15 249.647 1287.96 252.807L1289.7 251.81L1291.43 250.813C1289.26 247.04 1286.28 244.056 1282.51 241.886L1281.51 243.62ZM1289.7 251.81L1287.99 252.858C1289.87 255.901 1290.82 259.346 1290.82 263.25H1292.82H1294.82C1294.82 258.66 1293.69 254.479 1291.4 250.762L1289.7 251.81ZM1292.82 263.25H1290.82V312H1292.82H1294.82V263.25H1292.82ZM1394.04 312V314H1396.04V312H1394.04ZM1331.38 309.27L1330.56 311.095L1330.58 311.105L1330.6 311.114L1331.38 309.27ZM1320.07 301.47L1318.64 302.865L1318.65 302.875L1318.66 302.884L1320.07 301.47ZM1312.53 290.16L1310.69 290.934L1310.69 290.941L1310.69 290.948L1312.53 290.16ZM1309.8 240.5V238.5H1307.8V240.5H1309.8ZM1322.8 240.5H1324.8V238.5H1322.8V240.5ZM1325.79 287.69L1324.06 288.687L1324.07 288.713L1324.09 288.738L1325.79 287.69ZM1333.98 295.88L1332.93 297.583L1332.95 297.593L1332.96 297.603L1333.98 295.88ZM1345.29 299L1345.25 301L1345.27 301H1345.29V299ZM1381.04 299V301H1383.04V299H1381.04ZM1381.04 240.5V238.5H1379.04V240.5H1381.04ZM1394.04 240.5H1396.04V238.5H1394.04V240.5ZM1394.04 312V310H1345.29V312V314H1394.04V312ZM1345.29 312V310C1340.6 310 1336.23 309.138 1332.15 307.426L1331.38 309.27L1330.6 311.114C1335.2 313.042 1340.1 314 1345.29 314V312ZM1331.38 309.27L1332.2 307.445C1328.17 305.638 1324.61 303.177 1321.48 300.056L1320.07 301.47L1318.66 302.884C1322.12 306.349 1326.09 309.088 1330.56 311.095L1331.38 309.27ZM1320.07 301.47L1321.5 300.075C1318.47 296.958 1316.09 293.394 1314.37 289.372L1312.53 290.16L1310.69 290.948C1312.61 295.419 1315.26 299.395 1318.64 302.865L1320.07 301.47ZM1312.53 290.16L1314.37 289.386C1312.66 285.31 1311.8 280.938 1311.8 276.25H1309.8H1307.8C1307.8 281.442 1308.76 286.343 1310.69 290.934L1312.53 290.16ZM1309.8 276.25H1311.8V240.5H1309.8H1307.8V276.25H1309.8ZM1309.8 240.5V242.5H1322.8V240.5V238.5H1309.8V240.5ZM1322.8 240.5H1320.8V276.25H1322.8H1324.8V240.5H1322.8ZM1322.8 276.25H1320.8C1320.8 280.745 1321.88 284.904 1324.06 288.687L1325.79 287.69L1327.52 286.693C1325.71 283.542 1324.8 280.075 1324.8 276.25H1322.8ZM1325.79 287.69L1324.09 288.738C1326.33 292.385 1329.28 295.339 1332.93 297.583L1333.98 295.88L1335.03 294.177C1331.91 292.261 1329.41 289.755 1327.49 286.642L1325.79 287.69ZM1333.98 295.88L1332.96 297.603C1336.66 299.781 1340.77 300.906 1345.25 301L1345.29 299L1345.33 297C1341.49 296.92 1338.06 295.966 1335 294.157L1333.98 295.88ZM1345.29 299V301H1381.04V299V297H1345.29V299ZM1381.04 299H1383.04V240.5H1381.04H1379.04V299H1381.04ZM1381.04 240.5V242.5H1394.04V240.5V238.5H1381.04V240.5ZM1394.04 240.5H1392.04V312H1394.04H1396.04V240.5H1394.04ZM1437.88 312V314H1439.88V312H1437.88ZM1424.88 312H1422.88V314H1424.88V312ZM1424.88 253.5H1426.88V251.5H1424.88V253.5ZM1405.38 253.5H1403.38V255.5H1405.38V253.5ZM1405.38 240.5V238.5H1403.38V240.5H1405.38ZM1424.88 240.5V242.5H1426.88V240.5H1424.88ZM1424.88 214.5V212.5H1422.88V214.5H1424.88ZM1437.88 214.5H1439.88V212.5H1437.88V214.5ZM1437.88 240.5H1435.88V242.5H1437.88V240.5ZM1483.38 240.5H1485.38V238.5H1483.38V240.5ZM1483.38 253.5V255.5H1485.38V253.5H1483.38ZM1437.88 253.5V251.5H1435.88V253.5H1437.88ZM1437.88 312V310H1424.88V312V314H1437.88V312ZM1424.88 312H1426.88V253.5H1424.88H1422.88V312H1424.88ZM1424.88 253.5V251.5H1405.38V253.5V255.5H1424.88V253.5ZM1405.38 253.5H1407.38V240.5H1405.38H1403.38V253.5H1405.38ZM1405.38 240.5V242.5H1424.88V240.5V238.5H1405.38V240.5ZM1424.88 240.5H1426.88V214.5H1424.88H1422.88V240.5H1424.88ZM1424.88 214.5V216.5H1437.88V214.5V212.5H1424.88V214.5ZM1437.88 214.5H1435.88V240.5H1437.88H1439.88V214.5H1437.88ZM1437.88 240.5V242.5H1483.38V240.5V238.5H1437.88V240.5ZM1483.38 240.5H1481.38V253.5H1483.38H1485.38V240.5H1483.38ZM1483.38 253.5V251.5H1437.88V253.5V255.5H1483.38V253.5ZM1437.88 253.5H1435.88V312H1437.88H1439.88V253.5H1437.88ZM1575.72 290.16L1577.56 290.948L1577.57 290.941L1577.57 290.934L1575.72 290.16ZM1568.05 301.47L1566.64 300.056L1566.63 300.065L1566.62 300.075L1568.05 301.47ZM1556.74 309.27L1557.53 311.108L1557.54 311.105L1557.55 311.101L1556.74 309.27ZM1509.03 309.27L1508.22 311.095L1508.24 311.105L1508.26 311.114L1509.03 309.27ZM1497.72 301.47L1496.29 302.865L1496.3 302.875L1496.31 302.884L1497.72 301.47ZM1490.18 290.16L1488.34 290.934L1488.34 290.941L1488.35 290.948L1490.18 290.16ZM1490.18 262.47L1492.02 263.258L1492.03 263.251L1492.03 263.244L1490.18 262.47ZM1497.72 251.03L1496.31 249.616L1496.3 249.625L1496.29 249.635L1497.72 251.03ZM1509.03 243.36L1509.82 245.198L1509.83 245.195L1509.84 245.191L1509.03 243.36ZM1556.74 243.36L1555.93 245.185L1555.95 245.195L1555.97 245.204L1556.74 243.36ZM1568.05 251.03L1566.62 252.425L1566.63 252.435L1566.64 252.444L1568.05 251.03ZM1575.72 262.47L1573.88 263.244L1573.88 263.251L1573.89 263.258L1575.72 262.47ZM1562.46 264.94L1560.73 265.937L1560.74 265.946L1560.74 265.956L1562.46 264.94ZM1554.27 256.62L1553.23 258.323L1553.24 258.329L1553.25 258.335L1554.27 256.62ZM1511.63 256.62L1510.59 254.917L1511.63 256.62ZM1503.44 264.94L1501.73 263.911L1501.73 263.918L1501.72 263.924L1503.44 264.94ZM1503.44 287.69L1501.71 288.687L1501.73 288.713L1501.74 288.738L1503.44 287.69ZM1511.63 295.88L1510.59 297.583L1511.63 295.88ZM1554.27 295.88L1553.25 294.165L1553.24 294.171L1553.23 294.177L1554.27 295.88ZM1562.46 287.69L1564.19 288.706L1564.19 288.696L1564.2 288.687L1562.46 287.69ZM1578.45 276.25H1576.45C1576.45 280.938 1575.59 285.31 1573.88 289.386L1575.72 290.16L1577.57 290.934C1579.5 286.343 1580.45 281.442 1580.45 276.25H1578.45ZM1575.72 290.16L1573.89 289.372C1572.17 293.383 1569.76 296.941 1566.64 300.056L1568.05 301.47L1569.47 302.884C1572.94 299.412 1575.64 295.43 1577.56 290.948L1575.72 290.16ZM1568.05 301.47L1566.62 300.075C1563.6 303.178 1560.04 305.633 1555.94 307.439L1556.74 309.27L1557.55 311.101C1562.11 309.094 1566.1 306.348 1569.49 302.865L1568.05 301.47ZM1556.74 309.27L1555.96 307.432C1551.98 309.138 1547.65 310 1542.96 310V312V314C1548.16 314 1553.02 313.042 1557.53 311.108L1556.74 309.27ZM1542.96 312V310H1522.94V312V314H1542.96V312ZM1522.94 312V310C1518.26 310 1513.88 309.138 1509.81 307.426L1509.03 309.27L1508.26 311.114C1512.85 313.042 1517.75 314 1522.94 314V312ZM1509.03 309.27L1509.85 307.445C1505.83 305.638 1502.26 303.177 1499.14 300.056L1497.72 301.47L1496.31 302.884C1499.78 306.349 1503.75 309.088 1508.22 311.095L1509.03 309.27ZM1497.72 301.47L1499.16 300.075C1496.12 296.958 1493.75 293.394 1492.02 289.372L1490.18 290.16L1488.35 290.948C1490.26 295.419 1492.91 299.395 1496.29 302.865L1497.72 301.47ZM1490.18 290.16L1492.03 289.386C1490.32 285.31 1489.45 280.938 1489.45 276.25H1487.45H1485.45C1485.45 281.442 1486.41 286.343 1488.34 290.934L1490.18 290.16ZM1487.45 276.25H1489.45C1489.45 271.562 1490.32 267.239 1492.02 263.258L1490.18 262.47L1488.35 261.682C1486.41 266.195 1485.45 271.058 1485.45 276.25H1487.45ZM1490.18 262.47L1492.03 263.244C1493.75 259.137 1496.13 255.535 1499.16 252.425L1497.72 251.03L1496.29 249.635C1492.91 253.112 1490.26 257.137 1488.34 261.696L1490.18 262.47ZM1497.72 251.03L1499.14 252.444C1502.25 249.329 1505.81 246.917 1509.82 245.198L1509.03 243.36L1508.25 241.522C1503.76 243.443 1499.78 246.144 1496.31 249.616L1497.72 251.03ZM1509.03 243.36L1509.84 245.191C1513.91 243.401 1518.27 242.5 1522.94 242.5V240.5V238.5C1517.74 238.5 1512.83 239.506 1508.23 241.529L1509.03 243.36ZM1522.94 240.5V242.5H1542.96V240.5V238.5H1522.94V240.5ZM1542.96 240.5V242.5C1547.64 242.5 1551.95 243.401 1555.93 245.185L1556.74 243.36L1557.56 241.535C1553.04 239.506 1548.17 238.5 1542.96 238.5V240.5ZM1556.74 243.36L1555.97 245.204C1560.06 246.922 1563.61 249.329 1566.62 252.425L1568.05 251.03L1569.49 249.635C1566.09 246.145 1562.09 243.438 1557.52 241.516L1556.74 243.36ZM1568.05 251.03L1566.64 252.444C1569.75 255.552 1572.16 259.148 1573.88 263.244L1575.72 262.47L1577.57 261.696C1575.65 257.125 1572.95 253.094 1569.47 249.616L1568.05 251.03ZM1575.72 262.47L1573.89 263.258C1575.59 267.239 1576.45 271.562 1576.45 276.25H1578.45H1580.45C1580.45 271.058 1579.5 266.195 1577.56 261.682L1575.72 262.47ZM1565.45 276.25H1567.45C1567.45 271.755 1566.37 267.631 1564.19 263.924L1562.46 264.94L1560.74 265.956C1562.54 269.009 1563.45 272.425 1563.45 276.25H1565.45ZM1562.46 264.94L1564.2 263.943C1562.03 260.178 1559.06 257.158 1555.3 254.905L1554.27 256.62L1553.25 258.335C1556.42 260.242 1558.91 262.769 1560.73 265.937L1562.46 264.94ZM1554.27 256.62L1555.32 254.917C1551.61 252.633 1547.48 251.5 1542.96 251.5V253.5V255.5C1546.77 255.5 1550.18 256.447 1553.23 258.323L1554.27 256.62ZM1542.96 253.5V251.5H1522.94V253.5V255.5H1542.96V253.5ZM1522.94 253.5V251.5C1518.43 251.5 1514.3 252.633 1510.59 254.917L1511.63 256.62L1512.68 258.323C1515.73 256.447 1519.14 255.5 1522.94 255.5V253.5ZM1511.63 256.62L1510.59 254.917C1506.93 257.168 1503.97 260.175 1501.73 263.911L1503.44 264.94L1505.16 265.969C1507.08 262.772 1509.58 260.232 1512.68 258.323L1511.63 256.62ZM1503.44 264.94L1501.72 263.924C1499.54 267.631 1498.45 271.755 1498.45 276.25H1500.45H1502.45C1502.45 272.425 1503.37 269.009 1505.17 265.956L1503.44 264.94ZM1500.45 276.25H1498.45C1498.45 280.745 1499.54 284.904 1501.71 288.687L1503.44 287.69L1505.18 286.693C1503.37 283.542 1502.45 280.075 1502.45 276.25H1500.45ZM1503.44 287.69L1501.74 288.738C1503.99 292.385 1506.94 295.339 1510.59 297.583L1511.63 295.88L1512.68 294.177C1509.57 292.261 1507.06 289.755 1505.15 286.642L1503.44 287.69ZM1511.63 295.88L1510.59 297.583C1514.3 299.867 1518.43 301 1522.94 301V299V297C1519.14 297 1515.73 296.053 1512.68 294.177L1511.63 295.88ZM1522.94 299V301H1542.96V299V297H1522.94V299ZM1542.96 299V301C1547.48 301 1551.61 299.867 1555.32 297.583L1554.27 295.88L1553.23 294.177C1550.18 296.053 1546.77 297 1542.96 297V299ZM1554.27 295.88L1555.3 297.595C1559.05 295.349 1562.02 292.382 1564.19 288.706L1562.46 287.69L1560.74 286.674C1558.92 289.758 1556.44 292.251 1553.25 294.165L1554.27 295.88ZM1562.46 287.69L1564.2 288.687C1566.37 284.904 1567.45 280.745 1567.45 276.25H1565.45H1563.45C1563.45 280.075 1562.54 283.542 1560.73 286.693L1562.46 287.69ZM1712.93 227.5V229.5H1714.93V227.5H1712.93ZM1665.61 230.62L1664.56 228.917L1665.61 230.62ZM1657.42 238.94L1655.7 237.911L1655.7 237.918L1655.7 237.924L1657.42 238.94ZM1654.43 312V314H1656.43V312H1654.43ZM1641.43 312H1639.43V314H1641.43V312ZM1644.29 234.26L1646.09 235.138L1646.09 235.131L1646.09 235.123L1644.29 234.26ZM1652.09 223.99L1653.4 225.5L1653.4 225.498L1652.09 223.99ZM1663.53 217.1L1664.25 218.965L1664.27 218.958L1664.28 218.952L1663.53 217.1ZM1712.93 214.5H1714.93V212.5H1712.93V214.5ZM1712.93 260V262H1714.93V260H1712.93ZM1660.93 260H1658.93V262H1660.93V260ZM1660.93 247V245H1658.93V247H1660.93ZM1712.93 247H1714.93V245H1712.93V247ZM1712.93 227.5V225.5H1676.92V227.5V229.5H1712.93V227.5ZM1676.92 227.5V225.5C1672.41 225.5 1668.27 226.633 1664.56 228.917L1665.61 230.62L1666.66 232.323C1669.71 230.447 1673.11 229.5 1676.92 229.5V227.5ZM1665.61 230.62L1664.56 228.917C1660.9 231.168 1657.95 234.175 1655.7 237.911L1657.42 238.94L1659.13 239.969C1661.05 236.772 1663.55 234.232 1666.66 232.323L1665.61 230.62ZM1657.42 238.94L1655.7 237.924C1653.51 241.631 1652.43 245.755 1652.43 250.25H1654.43H1656.43C1656.43 246.425 1657.34 243.009 1659.14 239.956L1657.42 238.94ZM1654.43 250.25H1652.43V312H1654.43H1656.43V250.25H1654.43ZM1654.43 312V310H1641.43V312V314H1654.43V312ZM1641.43 312H1643.43V247H1641.43H1639.43V312H1641.43ZM1641.43 247H1643.43C1643.43 242.693 1644.32 238.749 1646.09 235.138L1644.29 234.26L1642.49 233.382C1640.44 237.571 1639.43 242.12 1639.43 247H1641.43ZM1644.29 234.26L1646.09 235.123C1647.88 231.38 1650.32 228.178 1653.4 225.5L1652.09 223.99L1650.78 222.48C1647.27 225.522 1644.51 229.167 1642.48 233.397L1644.29 234.26ZM1652.09 223.99L1653.4 225.498C1656.6 222.706 1660.22 220.529 1664.25 218.965L1663.53 217.1L1662.81 215.235C1658.35 216.964 1654.33 219.381 1650.77 222.482L1652.09 223.99ZM1663.53 217.1L1664.28 218.952C1668.29 217.318 1672.49 216.5 1676.92 216.5V214.5V212.5C1671.98 212.5 1667.26 213.415 1662.77 215.248L1663.53 217.1ZM1676.92 214.5V216.5H1712.93V214.5V212.5H1676.92V214.5ZM1712.93 214.5H1710.93V227.5H1712.93H1714.93V214.5H1712.93ZM1712.93 260V258H1660.93V260V262H1712.93V260ZM1660.93 260H1662.93V247H1660.93H1658.93V260H1660.93ZM1660.93 247V249H1712.93V247V245H1660.93V247ZM1712.93 247H1710.93V260H1712.93H1714.93V247H1712.93ZM1808.05 290.16L1809.89 290.948L1809.89 290.941L1809.89 290.934L1808.05 290.16ZM1800.38 301.47L1798.96 300.056L1798.96 300.065L1798.95 300.075L1800.38 301.47ZM1789.07 309.27L1789.86 311.108L1789.87 311.105L1789.87 311.101L1789.07 309.27ZM1741.36 309.27L1740.54 311.095L1740.56 311.105L1740.58 311.114L1741.36 309.27ZM1730.05 301.47L1728.62 302.865L1728.63 302.875L1728.63 302.884L1730.05 301.47ZM1722.51 290.16L1720.66 290.934L1720.67 290.941L1720.67 290.948L1722.51 290.16ZM1722.51 262.47L1724.35 263.258L1724.35 263.251L1724.35 263.244L1722.51 262.47ZM1730.05 251.03L1728.63 249.616L1728.63 249.625L1728.62 249.635L1730.05 251.03ZM1741.36 243.36L1742.15 245.198L1742.16 245.195L1742.16 245.191L1741.36 243.36ZM1789.07 243.36L1788.25 245.185L1788.27 245.195L1788.29 245.204L1789.07 243.36ZM1800.38 251.03L1798.95 252.425L1798.96 252.435L1798.96 252.444L1800.38 251.03ZM1808.05 262.47L1806.2 263.244L1806.21 263.251L1806.21 263.258L1808.05 262.47ZM1794.79 264.94L1793.05 265.937L1793.06 265.946L1793.07 265.956L1794.79 264.94ZM1786.6 256.62L1785.55 258.323L1785.56 258.329L1785.57 258.335L1786.6 256.62ZM1743.96 256.62L1742.91 254.917L1743.96 256.62ZM1735.77 264.94L1734.05 263.911L1734.05 263.918L1734.05 263.924L1735.77 264.94ZM1735.77 287.69L1734.03 288.687L1734.05 288.713L1734.07 288.738L1735.77 287.69ZM1743.96 295.88L1742.91 297.583L1743.96 295.88ZM1786.6 295.88L1785.57 294.165L1785.56 294.171L1785.55 294.177L1786.6 295.88ZM1794.79 287.69L1796.51 288.706L1796.52 288.696L1796.52 288.687L1794.79 287.69ZM1810.78 276.25H1808.78C1808.78 280.938 1807.92 285.31 1806.2 289.386L1808.05 290.16L1809.89 290.934C1811.82 286.343 1812.78 281.442 1812.78 276.25H1810.78ZM1808.05 290.16L1806.21 289.372C1804.49 293.383 1802.08 296.941 1798.96 300.056L1800.38 301.47L1801.79 302.884C1805.26 299.412 1807.97 295.43 1809.89 290.948L1808.05 290.16ZM1800.38 301.47L1798.95 300.075C1795.92 303.178 1792.37 305.633 1788.26 307.439L1789.07 309.27L1789.87 311.101C1794.44 309.094 1798.42 306.348 1801.81 302.865L1800.38 301.47ZM1789.07 309.27L1788.28 307.432C1784.3 309.138 1779.98 310 1775.29 310V312V314C1780.48 314 1785.34 313.042 1789.86 311.108L1789.07 309.27ZM1775.29 312V310H1755.27V312V314H1775.29V312ZM1755.27 312V310C1750.58 310 1746.21 309.138 1742.13 307.426L1741.36 309.27L1740.58 311.114C1745.18 313.042 1750.08 314 1755.27 314V312ZM1741.36 309.27L1742.18 307.445C1738.15 305.638 1734.58 303.177 1731.46 300.056L1730.05 301.47L1728.63 302.884C1732.1 306.349 1736.07 309.088 1740.54 311.095L1741.36 309.27ZM1730.05 301.47L1731.48 300.075C1728.45 296.958 1726.07 293.394 1724.35 289.372L1722.51 290.16L1720.67 290.948C1722.59 295.419 1725.24 299.395 1728.62 302.865L1730.05 301.47ZM1722.51 290.16L1724.35 289.386C1722.64 285.31 1721.78 280.938 1721.78 276.25H1719.78H1717.78C1717.78 281.442 1718.74 286.343 1720.66 290.934L1722.51 290.16ZM1719.78 276.25H1721.78C1721.78 271.562 1722.64 267.239 1724.35 263.258L1722.51 262.47L1720.67 261.682C1718.74 266.195 1717.78 271.058 1717.78 276.25H1719.78ZM1722.51 262.47L1724.35 263.244C1726.08 259.137 1728.45 255.535 1731.48 252.425L1730.05 251.03L1728.62 249.635C1725.23 253.112 1722.58 257.137 1720.66 261.696L1722.51 262.47ZM1730.05 251.03L1731.46 252.444C1734.58 249.329 1738.14 246.917 1742.15 245.198L1741.36 243.36L1740.57 241.522C1736.09 243.443 1732.11 246.144 1728.63 249.616L1730.05 251.03ZM1741.36 243.36L1742.16 245.191C1746.23 243.401 1750.59 242.5 1755.27 242.5V240.5V238.5C1750.06 238.5 1745.15 239.506 1740.55 241.529L1741.36 243.36ZM1755.27 240.5V242.5H1775.29V240.5V238.5H1755.27V240.5ZM1775.29 240.5V242.5C1779.96 242.5 1784.28 243.401 1788.25 245.185L1789.07 243.36L1789.89 241.535C1785.37 239.506 1780.49 238.5 1775.29 238.5V240.5ZM1789.07 243.36L1788.29 245.204C1792.39 246.922 1795.93 249.329 1798.95 252.425L1800.38 251.03L1801.81 249.635C1798.41 246.145 1794.42 243.438 1789.84 241.516L1789.07 243.36ZM1800.38 251.03L1798.96 252.444C1802.07 255.552 1804.48 259.148 1806.2 263.244L1808.05 262.47L1809.89 261.696C1807.97 257.125 1805.27 253.094 1801.79 249.616L1800.38 251.03ZM1808.05 262.47L1806.21 263.258C1807.92 267.239 1808.78 271.562 1808.78 276.25H1810.78H1812.78C1812.78 271.058 1811.82 266.195 1809.89 261.682L1808.05 262.47ZM1797.78 276.25H1799.78C1799.78 271.755 1798.7 267.631 1796.51 263.924L1794.79 264.94L1793.07 265.956C1794.87 269.009 1795.78 272.425 1795.78 276.25H1797.78ZM1794.79 264.94L1796.52 263.943C1794.36 260.178 1791.38 257.158 1787.63 254.905L1786.6 256.62L1785.57 258.335C1788.75 260.242 1791.23 262.769 1793.05 265.937L1794.79 264.94ZM1786.6 256.62L1787.65 254.917C1783.94 252.633 1779.8 251.5 1775.29 251.5V253.5V255.5C1779.1 255.5 1782.5 256.447 1785.55 258.323L1786.6 256.62ZM1775.29 253.5V251.5H1755.27V253.5V255.5H1775.29V253.5ZM1755.27 253.5V251.5C1750.76 251.5 1746.62 252.633 1742.91 254.917L1743.96 256.62L1745.01 258.323C1748.06 256.447 1751.46 255.5 1755.27 255.5V253.5ZM1743.96 256.62L1742.91 254.917C1739.25 257.168 1736.3 260.175 1734.05 263.911L1735.77 264.94L1737.48 265.969C1739.4 262.772 1741.91 260.232 1745.01 258.323L1743.96 256.62ZM1735.77 264.94L1734.05 263.924C1731.86 267.631 1730.78 271.755 1730.78 276.25H1732.78H1734.78C1734.78 272.425 1735.69 269.009 1737.49 265.956L1735.77 264.94ZM1732.78 276.25H1730.78C1730.78 280.745 1731.86 284.904 1734.03 288.687L1735.77 287.69L1737.5 286.693C1735.69 283.542 1734.78 280.075 1734.78 276.25H1732.78ZM1735.77 287.69L1734.07 288.738C1736.31 292.385 1739.26 295.339 1742.91 297.583L1743.96 295.88L1745.01 294.177C1741.89 292.261 1739.39 289.755 1737.47 286.642L1735.77 287.69ZM1743.96 295.88L1742.91 297.583C1746.62 299.867 1750.76 301 1755.27 301V299V297C1751.46 297 1748.06 296.053 1745.01 294.177L1743.96 295.88ZM1755.27 299V301H1775.29V299V297H1755.27V299ZM1775.29 299V301C1779.8 301 1783.94 299.867 1787.65 297.583L1786.6 295.88L1785.55 294.177C1782.5 296.053 1779.1 297 1775.29 297V299ZM1786.6 295.88L1787.63 297.595C1791.37 295.349 1794.34 292.382 1796.51 288.706L1794.79 287.69L1793.07 286.674C1791.25 289.758 1788.76 292.251 1785.57 294.165L1786.6 295.88ZM1794.79 287.69L1796.52 288.687C1798.7 284.904 1799.78 280.745 1799.78 276.25H1797.78H1795.78C1795.78 280.075 1794.87 283.542 1793.05 286.693L1794.79 287.69ZM1895.98 253.5V255.5H1897.98V253.5H1895.98ZM1840.34 256.36L1838.93 254.946V254.946L1840.34 256.36ZM1837.48 312V314H1839.48V312H1837.48ZM1824.48 312H1822.48V314H1824.48V312ZM1827.47 251.81L1825.76 250.781L1825.75 250.787L1825.75 250.794L1827.47 251.81ZM1835.79 243.62L1836.79 245.354L1836.81 245.345L1836.82 245.335L1835.79 243.62ZM1895.98 240.5H1897.98V238.5H1895.98V240.5ZM1895.98 253.5V251.5H1847.23V253.5V255.5H1895.98V253.5ZM1847.23 253.5V251.5C1844.01 251.5 1841.21 252.666 1838.93 254.946L1840.34 256.36L1841.76 257.774C1843.29 256.241 1845.08 255.5 1847.23 255.5V253.5ZM1840.34 256.36L1838.93 254.946C1836.65 257.226 1835.48 260.031 1835.48 263.25H1837.48H1839.48C1839.48 261.096 1840.22 259.307 1841.76 257.774L1840.34 256.36ZM1837.48 263.25H1835.48V312H1837.48H1839.48V263.25H1837.48ZM1837.48 312V310H1824.48V312V314H1837.48V312ZM1824.48 312H1826.48V263.25H1824.48H1822.48V312H1824.48ZM1824.48 263.25H1826.48C1826.48 259.33 1827.4 255.873 1829.2 252.826L1827.47 251.81L1825.75 250.794C1823.56 254.507 1822.48 258.676 1822.48 263.25H1824.48ZM1827.47 251.81L1829.19 252.839C1831.09 249.661 1833.62 247.175 1836.79 245.354L1835.79 243.62L1834.8 241.886C1831.03 244.051 1828.01 247.025 1825.76 250.781L1827.47 251.81ZM1835.79 243.62L1836.82 245.335C1839.97 243.447 1843.42 242.5 1847.23 242.5V240.5V238.5C1842.72 238.5 1838.55 239.633 1834.76 241.905L1835.79 243.62ZM1847.23 240.5V242.5H1895.98V240.5V238.5H1847.23V240.5ZM1895.98 240.5H1893.98V253.5H1895.98H1897.98V240.5H1895.98ZM1981.3 326.69L1979.58 325.661L1979.57 325.677L1979.57 325.693L1981.3 326.69ZM1973.11 334.88L1972.11 333.146L1972.1 333.155L1972.08 333.165L1973.11 334.88ZM1909.67 338H1907.67V340H1909.67V338ZM1909.67 325V323H1907.67V325H1909.67ZM1971.42 253.5H1973.42V251.5H1971.42V253.5ZM1924.36 256.62L1923.31 254.917L1924.36 256.62ZM1916.17 264.94L1914.45 263.911L1914.45 263.918L1914.45 263.924L1916.17 264.94ZM1916.17 287.69L1914.44 288.687L1914.45 288.713L1914.47 288.738L1916.17 287.69ZM1924.36 295.88L1923.31 297.583L1923.33 297.593L1923.34 297.603L1924.36 295.88ZM1935.67 299L1935.63 301L1935.65 301H1935.67V299ZM1964.92 299H1966.92V297H1964.92V299ZM1964.92 312V314H1966.92V312H1964.92ZM1921.76 309.27L1920.94 311.095L1920.96 311.105L1920.98 311.114L1921.76 309.27ZM1910.45 301.47L1909.02 302.865L1909.03 302.875L1909.03 302.884L1910.45 301.47ZM1902.91 290.16L1901.07 290.934L1901.07 290.941L1901.07 290.948L1902.91 290.16ZM1902.91 262.47L1904.75 263.258L1904.75 263.251L1904.75 263.244L1902.91 262.47ZM1910.45 251.03L1909.03 249.616L1909.03 249.625L1909.02 249.635L1910.45 251.03ZM1921.76 243.36L1922.55 245.198L1922.56 245.195L1922.56 245.191L1921.76 243.36ZM1984.42 240.5H1986.42V238.5H1984.42V240.5ZM1984.42 315.25H1982.42C1982.42 319.059 1981.47 322.514 1979.58 325.661L1981.3 326.69L1983.01 327.719C1985.29 323.932 1986.42 319.761 1986.42 315.25H1984.42ZM1981.3 326.69L1979.57 325.693C1977.75 328.853 1975.27 331.329 1972.11 333.146L1973.11 334.88L1974.11 336.614C1977.88 334.444 1980.86 331.46 1983.03 327.687L1981.3 326.69ZM1973.11 334.88L1972.08 333.165C1968.93 335.053 1965.48 336 1961.67 336V338V340C1966.18 340 1970.35 338.867 1974.14 336.595L1973.11 334.88ZM1961.67 338V336H1909.67V338V340H1961.67V338ZM1909.67 338H1911.67V325H1909.67H1907.67V338H1909.67ZM1909.67 325V327H1961.67V325V323H1909.67V325ZM1961.67 325V327C1964.89 327 1967.69 325.834 1969.97 323.554L1968.56 322.14L1967.14 320.726C1965.61 322.259 1963.82 323 1961.67 323V325ZM1968.56 322.14L1969.97 323.554C1972.25 321.274 1973.42 318.469 1973.42 315.25H1971.42H1969.42C1969.42 317.404 1968.68 319.193 1967.14 320.726L1968.56 322.14ZM1971.42 315.25H1973.42V253.5H1971.42H1969.42V315.25H1971.42ZM1971.42 253.5V251.5H1935.67V253.5V255.5H1971.42V253.5ZM1935.67 253.5V251.5C1931.16 251.5 1927.02 252.633 1923.31 254.917L1924.36 256.62L1925.41 258.323C1928.46 256.447 1931.86 255.5 1935.67 255.5V253.5ZM1924.36 256.62L1923.31 254.917C1919.65 257.168 1916.7 260.175 1914.45 263.911L1916.17 264.94L1917.88 265.969C1919.8 262.772 1922.31 260.232 1925.41 258.323L1924.36 256.62ZM1916.17 264.94L1914.45 263.924C1912.26 267.631 1911.18 271.755 1911.18 276.25H1913.18H1915.18C1915.18 272.425 1916.09 269.009 1917.89 265.956L1916.17 264.94ZM1913.18 276.25H1911.18C1911.18 280.745 1912.26 284.904 1914.44 288.687L1916.17 287.69L1917.9 286.693C1916.09 283.542 1915.18 280.075 1915.18 276.25H1913.18ZM1916.17 287.69L1914.47 288.738C1916.71 292.385 1919.66 295.339 1923.31 297.583L1924.36 295.88L1925.41 294.177C1922.29 292.261 1919.79 289.755 1917.87 286.642L1916.17 287.69ZM1924.36 295.88L1923.34 297.603C1927.04 299.781 1931.15 300.906 1935.63 301L1935.67 299L1935.71 297C1931.87 296.92 1928.44 295.966 1925.38 294.157L1924.36 295.88ZM1935.67 299V301H1964.92V299V297H1935.67V299ZM1964.92 299H1962.92V312H1964.92H1966.92V299H1964.92ZM1964.92 312V310H1935.67V312V314H1964.92V312ZM1935.67 312V310C1930.98 310 1926.61 309.138 1922.53 307.426L1921.76 309.27L1920.98 311.114C1925.58 313.042 1930.48 314 1935.67 314V312ZM1921.76 309.27L1922.58 307.445C1918.55 305.638 1914.98 303.177 1911.86 300.056L1910.45 301.47L1909.03 302.884C1912.5 306.349 1916.47 309.088 1920.94 311.095L1921.76 309.27ZM1910.45 301.47L1911.88 300.075C1908.85 296.958 1906.47 293.394 1904.75 289.372L1902.91 290.16L1901.07 290.948C1902.99 295.419 1905.64 299.395 1909.02 302.865L1910.45 301.47ZM1902.91 290.16L1904.75 289.386C1903.04 285.31 1902.18 280.938 1902.18 276.25H1900.18H1898.18C1898.18 281.442 1899.14 286.343 1901.07 290.934L1902.91 290.16ZM1900.18 276.25H1902.18C1902.18 271.562 1903.04 267.239 1904.75 263.258L1902.91 262.47L1901.07 261.682C1899.14 266.195 1898.18 271.058 1898.18 276.25H1900.18ZM1902.91 262.47L1904.75 263.244C1906.48 259.137 1908.85 255.535 1911.88 252.425L1910.45 251.03L1909.02 249.635C1905.63 253.112 1902.98 257.137 1901.07 261.696L1902.91 262.47ZM1910.45 251.03L1911.86 252.444C1914.98 249.329 1918.54 246.917 1922.55 245.198L1921.76 243.36L1920.97 241.522C1916.49 243.443 1912.51 246.144 1909.03 249.616L1910.45 251.03ZM1921.76 243.36L1922.56 245.191C1926.63 243.401 1930.99 242.5 1935.67 242.5V240.5V238.5C1930.46 238.5 1925.55 239.506 1920.95 241.529L1921.76 243.36ZM1935.67 240.5V242.5H1984.42V240.5V238.5H1935.67V240.5ZM1984.42 240.5H1982.42V315.25H1984.42H1986.42V240.5H1984.42ZM2083.2 274.69L2081.48 273.661L2081.47 273.677L2081.46 273.693L2083.2 274.69ZM2075.01 283.01L2076.02 284.733L2076.03 284.729L2076.04 284.725L2075.01 283.01ZM2013.78 286V284H2010.61L2011.97 286.861L2013.78 286ZM2021.84 295.36L2020.71 297.012L2020.72 297.018L2020.73 297.024L2021.84 295.36ZM2076.57 299H2078.57V297H2076.57V299ZM2076.57 312V314H2078.57V312H2076.57ZM2020.15 309.27L2019.33 311.095L2019.35 311.105L2019.37 311.114L2020.15 309.27ZM2008.84 301.47L2007.4 302.865L2007.41 302.875L2007.42 302.884L2008.84 301.47ZM2001.3 290.16L1999.45 290.934L1999.46 290.941L1999.46 290.948L2001.3 290.16ZM2001.3 262.47L2003.14 263.258L2003.14 263.251L2003.14 263.244L2001.3 262.47ZM2008.84 251.03L2007.42 249.616L2007.41 249.625L2007.4 249.635L2008.84 251.03ZM2020.15 243.36L2020.94 245.198L2020.94 245.195L2020.95 245.191L2020.15 243.36ZM2075.01 243.62L2073.96 245.323L2073.98 245.339L2074.01 245.354L2075.01 243.62ZM2083.2 251.81L2081.46 252.807L2081.48 252.833L2081.49 252.858L2083.2 251.81ZM2070.46 270.14L2069.04 268.726L2070.46 270.14ZM2070.46 256.36L2071.87 254.946V254.946L2070.46 256.36ZM2023.53 256.1L2022.58 254.341L2022.57 254.346L2022.56 254.352L2023.53 256.1ZM2015.73 263.12L2017.36 264.273L2015.73 263.12ZM2011.83 273L2009.85 272.717L2009.52 275H2011.83V273ZM2086.32 263.25H2084.32C2084.32 267.059 2083.37 270.514 2081.48 273.661L2083.2 274.69L2084.91 275.719C2087.18 271.932 2088.32 267.761 2088.32 263.25H2086.32ZM2083.2 274.69L2081.46 273.693C2079.64 276.861 2077.16 279.388 2073.98 281.295L2075.01 283.01L2076.04 284.725C2079.79 282.472 2082.77 279.452 2084.93 275.687L2083.2 274.69ZM2075.01 283.01L2073.99 281.287C2070.94 283.084 2067.49 284 2063.57 284V286V288C2068.14 288 2072.31 286.922 2076.02 284.733L2075.01 283.01ZM2063.57 286V284H2013.78V286V288H2063.57V286ZM2013.78 286L2011.97 286.861C2013.95 290.999 2016.87 294.39 2020.71 297.012L2021.84 295.36L2022.97 293.708C2019.7 291.477 2017.25 288.627 2015.58 285.139L2013.78 286ZM2021.84 295.36L2020.73 297.024C2024.71 299.677 2029.17 301 2034.06 301V299V297C2029.93 297 2026.25 295.897 2022.95 293.696L2021.84 295.36ZM2034.06 299V301H2076.57V299V297H2034.06V299ZM2076.57 299H2074.57V312H2076.57H2078.57V299H2076.57ZM2076.57 312V310H2034.06V312V314H2076.57V312ZM2034.06 312V310C2029.37 310 2025 309.138 2020.92 307.426L2020.15 309.27L2019.37 311.114C2023.96 313.042 2028.87 314 2034.06 314V312ZM2020.15 309.27L2020.97 307.445C2016.94 305.638 2013.37 303.177 2010.25 300.056L2008.84 301.47L2007.42 302.884C2010.89 306.349 2014.86 309.088 2019.33 311.095L2020.15 309.27ZM2008.84 301.47L2010.27 300.075C2007.24 296.958 2004.86 293.394 2003.14 289.372L2001.3 290.16L1999.46 290.948C2001.38 295.419 2004.03 299.395 2007.4 302.865L2008.84 301.47ZM2001.3 290.16L2003.14 289.386C2001.43 285.31 2000.57 280.938 2000.57 276.25H1998.57H1996.57C1996.57 281.442 1997.53 286.343 1999.45 290.934L2001.3 290.16ZM1998.57 276.25H2000.57C2000.57 271.562 2001.43 267.239 2003.14 263.258L2001.3 262.47L1999.46 261.682C1997.53 266.195 1996.57 271.058 1996.57 276.25H1998.57ZM2001.3 262.47L2003.14 263.244C2004.87 259.137 2007.24 255.535 2010.27 252.425L2008.84 251.03L2007.4 249.635C2004.02 253.112 2001.37 257.137 1999.45 261.696L2001.3 262.47ZM2008.84 251.03L2010.25 252.444C2013.37 249.329 2016.92 246.917 2020.94 245.198L2020.15 243.36L2019.36 241.522C2014.88 243.443 2010.9 246.144 2007.42 249.616L2008.84 251.03ZM2020.15 243.36L2020.95 245.191C2025.02 243.401 2029.38 242.5 2034.06 242.5V240.5V238.5C2028.85 238.5 2023.94 239.506 2019.34 241.529L2020.15 243.36ZM2034.06 240.5V242.5H2063.57V240.5V238.5H2034.06V240.5ZM2063.57 240.5V242.5C2067.47 242.5 2070.92 243.451 2073.96 245.323L2075.01 243.62L2076.06 241.917C2072.34 239.629 2068.16 238.5 2063.57 238.5V240.5ZM2075.01 243.62L2074.01 245.354C2077.17 247.171 2079.65 249.647 2081.46 252.807L2083.2 251.81L2084.93 250.813C2082.76 247.04 2079.78 244.056 2076 241.886L2075.01 243.62ZM2083.2 251.81L2081.49 252.858C2083.37 255.901 2084.32 259.346 2084.32 263.25H2086.32H2088.32C2088.32 258.66 2087.19 254.479 2084.9 250.762L2083.2 251.81ZM2063.57 273V275C2066.79 275 2069.59 273.834 2071.87 271.554L2070.46 270.14L2069.04 268.726C2067.51 270.259 2065.72 271 2063.57 271V273ZM2070.46 270.14L2071.87 271.554C2074.15 269.274 2075.32 266.469 2075.32 263.25H2073.32H2071.32C2071.32 265.404 2070.58 267.193 2069.04 268.726L2070.46 270.14ZM2073.32 263.25H2075.32C2075.32 260.031 2074.15 257.226 2071.87 254.946L2070.46 256.36L2069.04 257.774C2070.58 259.307 2071.32 261.096 2071.32 263.25H2073.32ZM2070.46 256.36L2071.87 254.946C2069.59 252.666 2066.79 251.5 2063.57 251.5V253.5V255.5C2065.72 255.5 2067.51 256.241 2069.04 257.774L2070.46 256.36ZM2063.57 253.5V251.5H2034.06V253.5V255.5H2063.57V253.5ZM2034.06 253.5V251.5C2029.93 251.5 2026.09 252.442 2022.58 254.341L2023.53 256.1L2024.48 257.859C2027.38 256.291 2030.56 255.5 2034.06 255.5V253.5ZM2023.53 256.1L2022.56 254.352C2019.17 256.233 2016.35 258.777 2014.09 261.967L2015.73 263.12L2017.36 264.273C2019.27 261.57 2021.64 259.434 2024.5 257.848L2023.53 256.1ZM2015.73 263.12L2014.09 261.967C2011.83 265.177 2010.41 268.77 2009.85 272.717L2011.83 273L2013.81 273.283C2014.28 269.95 2015.47 266.956 2017.36 264.273L2015.73 263.12ZM2011.83 273V275H2063.57V273V271H2011.83V273Z" fill="#B54745" mask="url(#path-9-outside-1_186_246)"/>
<path d="M117.5 321.5L141.5 345L98 417L71 396L117.5 321.5Z" fill="white"/>
<path d="M97.4528 246.206C97.4528 246.206 79.8881 246.379 69.0005 243.999C58.94 241.799 44.1623 235.142 44.1623 235.142C44.1623 235.142 43.5016 231.268 43.7455 227.084C44.0244 222.302 45.3473 217.97 45.648 213.001C46.0361 206.588 51.7159 198.067 51.7159 198.067C51.7159 198.067 55.8965 191.502 57.9806 186.937C59.609 183.37 57.9662 178.5 60.0005 174.999C62.3825 170.899 64.4755 169.459 67.5005 165.499C70.8022 161.177 69.2736 159.622 75.2605 155.499C80.7107 151.745 91.0006 138.499 91.0006 138.499C91.0006 138.499 105.913 146.56 114.608 152.999C123.366 159.485 135.501 171.499 135.501 171.499C129.85 175.271 122.653 184.053 119.529 188.839C116.034 194.192 116.397 197.792 114.608 203.395C112.556 209.824 111.64 219.44 111.64 219.44L97.4528 246.206Z" fill="white"/>
<path d="M87.5 172.5C101.194 172.5 112.5 184.026 112.5 198.5C112.5 212.974 101.194 224.5 87.5 224.5C73.8057 224.5 62.5 212.974 62.5 198.5C62.5 184.026 73.8057 172.5 87.5 172.5Z" stroke="#0B253C" stroke-width="7"/>
<circle cx="87.5" cy="198.5" r="15.5" fill="#B54745"/>
<rect x="337" y="128" width="17" height="118" fill="white"/>
</svg>
