<svg width="19" height="19" viewBox="0 0 19 19" fill="none" xmlns="http://www.w3.org/2000/svg">
<path d="M9.49983 1.71684C12.0179 1.71684 12.3612 1.71684 13.3913 1.71684C14.307 1.71684 14.7648 1.94575 15.1082 2.06021C15.566 2.28912 15.9094 2.40357 16.2527 2.74694C16.5961 3.09031 16.825 3.43368 16.9395 3.8915C17.0539 4.23487 17.1684 4.69269 17.2828 5.60834C17.2828 6.63844 17.2828 6.86735 17.2828 9.49983C17.2828 12.1323 17.2828 12.3612 17.2828 13.3913C17.2828 14.307 17.0539 14.7648 16.9395 15.1082C16.7106 15.566 16.5961 15.9094 16.2527 16.2527C15.9094 16.5961 15.566 16.825 15.1082 16.9395C14.7648 17.0539 14.307 17.1684 13.3913 17.2828C12.3612 17.2828 12.1323 17.2828 9.49983 17.2828C6.86735 17.2828 6.63844 17.2828 5.60834 17.2828C4.69269 17.2828 4.23487 17.0539 3.8915 16.9395C3.43368 16.7106 3.09031 16.5961 2.74694 16.2527C2.40357 15.9094 2.17466 15.566 2.06021 15.1082C1.94575 14.7648 1.83129 14.307 1.71684 13.3913C1.71684 12.3612 1.71684 12.1323 1.71684 9.49983C1.71684 6.86735 1.71684 6.63844 1.71684 5.60834C1.71684 4.69269 1.94575 4.23487 2.06021 3.8915C2.28912 3.43368 2.40357 3.09031 2.74694 2.74694C3.09031 2.40357 3.43368 2.17466 3.8915 2.06021C4.23487 1.94575 4.69269 1.83129 5.60834 1.71684C6.63844 1.71684 6.98181 1.71684 9.49983 1.71684ZM9.49983 0C6.86735 0 6.63844 0 5.60834 0C4.57823 0 3.8915 0.228912 3.31922 0.457824C2.74694 0.686736 2.17466 1.0301 1.60238 1.60238C1.0301 2.17466 0.801192 2.63248 0.457824 3.31922C0.228912 3.8915 0.114456 4.57823 0 5.60834C0 6.63844 0 6.98181 0 9.49983C0 12.1323 0 12.3612 0 13.3913C0 14.4214 0.228912 15.1082 0.457824 15.6804C0.686736 16.2527 1.0301 16.825 1.60238 17.3973C2.17466 17.9696 2.63248 18.1985 3.31922 18.5418C3.8915 18.7708 4.57823 18.8852 5.60834 18.9997C6.63844 18.9997 6.98181 18.9997 9.49983 18.9997C12.0179 18.9997 12.3612 18.9997 13.3913 18.9997C14.4214 18.9997 15.1082 18.7708 15.6804 18.5418C16.2527 18.3129 16.825 17.9696 17.3973 17.3973C17.9696 16.825 18.1985 16.3672 18.5418 15.6804C18.7708 15.1082 18.8852 14.4214 18.9997 13.3913C18.9997 12.3612 18.9997 12.0179 18.9997 9.49983C18.9997 6.98181 18.9997 6.63844 18.9997 5.60834C18.9997 4.57823 18.7708 3.8915 18.5418 3.31922C18.3129 2.74694 17.9696 2.17466 17.3973 1.60238C16.825 1.0301 16.3672 0.801192 15.6804 0.457824C15.1082 0.228912 14.4214 0.114456 13.3913 0C12.3612 0 12.1323 0 9.49983 0Z" fill="white"/>
<path d="M9.49983 4.57823C6.75289 4.57823 4.57823 6.75289 4.57823 9.49983C4.57823 12.2468 6.75289 14.4214 9.49983 14.4214C12.2468 14.4214 14.4214 12.2468 14.4214 9.49983C14.4214 6.75289 12.2468 4.57823 9.49983 4.57823ZM9.49983 12.7046C7.783 12.7046 6.29507 11.3311 6.29507 9.49983C6.29507 7.783 7.66854 6.29507 9.49983 6.29507C11.2167 6.29507 12.7046 7.66854 12.7046 9.49983C12.7046 11.2167 11.2167 12.7046 9.49983 12.7046Z" fill="white"/>
<path d="M14.5359 5.60834C15.168 5.60834 15.6804 5.0959 15.6804 4.46378C15.6804 3.83166 15.168 3.31922 14.5359 3.31922C13.9038 3.31922 13.3913 3.83166 13.3913 4.46378C13.3913 5.0959 13.9038 5.60834 14.5359 5.60834Z" fill="white"/>
</svg>
