<svg width="22" height="18" viewBox="0 0 22 18" fill="none" xmlns="http://www.w3.org/2000/svg">
<path d="M6.91882 17.6C15.2211 17.6 19.7613 10.8294 19.7613 4.95856C19.7613 4.7662 19.7573 4.57482 19.7483 4.38418C20.6296 3.7571 21.3958 2.97435 22 2.08372C21.1913 2.43741 20.3211 2.67558 19.408 2.78297C20.3398 2.23298 21.0555 1.36255 21.393 0.325119C20.5207 0.834226 19.5549 1.20417 18.527 1.40368C17.703 0.540141 16.53 0 15.2321 0C12.7392 0 10.7176 1.98988 10.7176 4.44256C10.7176 4.79132 10.7574 5.13023 10.8345 5.4556C7.08346 5.27013 3.75704 3.50193 1.53109 0.813783C1.143 1.47018 0.919556 2.23322 0.919556 3.04676C0.919556 4.58812 1.71651 5.94894 2.92832 6.74524C2.18792 6.72283 1.49231 6.52233 0.884025 6.18933C0.883024 6.20781 0.883024 6.22653 0.883024 6.24598C0.883024 8.39793 2.43914 10.1945 4.5042 10.6016C4.12512 10.7033 3.72627 10.758 3.31441 10.758C3.02365 10.758 2.7409 10.7294 2.46591 10.6779C3.04042 12.443 4.70688 13.7277 6.68261 13.7639C5.1375 14.9557 3.1913 15.6658 1.07669 15.6658C0.712625 15.6658 0.35331 15.6454 0 15.6042C1.9975 16.8643 4.36933 17.6 6.91882 17.6Z" fill="white"/>
</svg>
