<svg width="24" height="24" viewBox="0 0 24 24" fill="none" xmlns="http://www.w3.org/2000/svg">
<path d="M16.175 13L11.275 17.9C11.075 18.1 10.979 18.3334 10.987 18.6C10.995 18.8667 11.0994 19.1 11.3 19.3C11.5 19.4834 11.7334 19.5794 12 19.588C12.2667 19.5967 12.5 19.5007 12.7 19.3L19.3 12.7C19.4 12.6 19.471 12.4917 19.513 12.375C19.555 12.2584 19.5754 12.1334 19.574 12C19.5727 11.8667 19.5517 11.7417 19.511 11.625C19.4704 11.5084 19.3997 11.4 19.299 11.3L12.699 4.70005C12.5157 4.51672 12.2864 4.42505 12.011 4.42505C11.7357 4.42505 11.4984 4.51672 11.299 4.70005C11.099 4.90005 10.999 5.13772 10.999 5.41305C10.999 5.68838 11.099 5.92572 11.299 6.12505L16.175 11H5.00004C4.7167 11 4.47904 11.096 4.28704 11.288C4.09504 11.48 3.99937 11.7174 4.00004 12C4.0007 12.2827 4.0967 12.5204 4.28804 12.713C4.47937 12.9057 4.7167 13.0014 5.00004 13H16.175Z" fill="white"/>
</svg>
