<svg width="34" height="34" viewBox="0 0 34 34" fill="none" xmlns="http://www.w3.org/2000/svg">
<path d="M12.75 14.1666L17.3655 17.6289C17.6514 17.8434 18.0079 17.9418 18.3634 17.9045C18.7188 17.8672 19.0471 17.6969 19.2822 17.4278L28.3333 7.08325" stroke="#37B39C" stroke-width="2.5" stroke-linecap="round"/>
<path d="M29.75 17C29.7501 19.6641 28.9156 22.2613 27.3638 24.4268C25.8121 26.5923 23.621 28.2173 21.0983 29.0736C18.5756 29.93 15.848 29.9746 13.2987 29.2012C10.7493 28.4278 8.50627 26.8753 6.88454 24.7617C5.26281 22.6481 4.34388 20.0796 4.25681 17.4169C4.16975 14.7543 4.91892 12.1312 6.39912 9.9162C7.87931 7.70117 10.0162 6.00544 12.5095 5.06717C15.0029 4.1289 17.7276 3.99523 20.3008 4.68493" stroke="#37B39C" stroke-width="2.5" stroke-linecap="round"/>
</svg>
