<svg width="24" height="25" viewBox="0 0 24 25" fill="none" xmlns="http://www.w3.org/2000/svg">
<path d="M16.1752 13.5L11.2752 18.4C11.0752 18.6 10.9792 18.8334 10.9872 19.1C10.9952 19.3667 11.0995 19.6 11.3002 19.8C11.5002 19.9834 11.7335 20.0794 12.0002 20.088C12.2668 20.0967 12.5002 20.0007 12.7002 19.8L19.3002 13.2C19.4002 13.1 19.4712 12.9917 19.5132 12.875C19.5552 12.7584 19.5755 12.6334 19.5742 12.5C19.5728 12.3667 19.5518 12.2417 19.5112 12.125C19.4705 12.0084 19.3998 11.9 19.2992 11.8L12.6992 5.20005C12.5158 5.01672 12.2865 4.92505 12.0112 4.92505C11.7358 4.92505 11.4985 5.01672 11.2992 5.20005C11.0992 5.40005 10.9992 5.63772 10.9992 5.91305C10.9992 6.18838 11.0992 6.42572 11.2992 6.62505L16.1752 11.5H5.00016C4.71682 11.5 4.47916 11.596 4.28716 11.788C4.09516 11.98 3.99949 12.2174 4.00016 12.5C4.00082 12.7827 4.09682 13.0204 4.28816 13.213C4.47949 13.4057 4.71682 13.5014 5.00016 13.5H16.1752Z" fill="#212121"/>
</svg>
